<mxfile host="app.diagrams.net" modified="2023-09-21T06:15:30.469Z" agent="Mozilla/5.0 (Macintosh; Intel Mac OS X 10_15_7) AppleWebKit/537.36 (KHTML, like Gecko) Chrome/116.0.0.0 Safari/537.36" etag="oKCVHLnMt6sFLQCJL4si" version="21.7.5" type="github">
  <diagram name="Page-1" id="0Q7t6ijoDG1jxrJWOxci">
    <mxGraphModel dx="2966" dy="1583" grid="1" gridSize="10" guides="1" tooltips="1" connect="1" arrows="1" fold="1" page="0" pageScale="1" pageWidth="850" pageHeight="1100" math="0" shadow="0">
      <root>
        <mxCell id="0" />
        <mxCell id="1" parent="0" />
        <mxCell id="T-G6s2uSpHPfjvhsTkFT-5" value="effect.js" style="text;strokeColor=none;align=left;fillColor=none;html=1;verticalAlign=top;whiteSpace=wrap;rounded=0;fontStyle=1;container=0;" parent="1" vertex="1">
          <mxGeometry x="-70" y="18.42" width="87" height="31.58" as="geometry" />
        </mxCell>
        <mxCell id="T-G6s2uSpHPfjvhsTkFT-15" value="" style="group" parent="1" vertex="1" connectable="0">
          <mxGeometry x="-70" y="-160" width="230" height="110" as="geometry" />
        </mxCell>
        <mxCell id="T-G6s2uSpHPfjvhsTkFT-1" value="" style="rounded=0;whiteSpace=wrap;html=1;" parent="T-G6s2uSpHPfjvhsTkFT-15" vertex="1">
          <mxGeometry y="30" width="230" height="80" as="geometry" />
        </mxCell>
        <mxCell id="T-G6s2uSpHPfjvhsTkFT-13" value="" style="group" parent="T-G6s2uSpHPfjvhsTkFT-15" vertex="1" connectable="0">
          <mxGeometry width="230" height="110" as="geometry" />
        </mxCell>
        <mxCell id="T-G6s2uSpHPfjvhsTkFT-14" value="" style="group" parent="T-G6s2uSpHPfjvhsTkFT-13" vertex="1" connectable="0">
          <mxGeometry width="230" height="110" as="geometry" />
        </mxCell>
        <mxCell id="T-G6s2uSpHPfjvhsTkFT-2" value="&lt;div data-lake_diagram_content_editor_data=&quot;true&quot;&gt;&lt;div&gt;// 新建一个set集合用来保存effects对象&lt;/div&gt;export const createDep = (effects) =&amp;gt; {&lt;div&gt;&amp;nbsp; &amp;nbsp; const dep = new Set(effects)&lt;/div&gt;&lt;div&gt;&amp;nbsp; &amp;nbsp; return dep&lt;/div&gt;&lt;div&gt;}&lt;/div&gt;&lt;/div&gt;" style="text;strokeColor=none;align=left;fillColor=none;html=1;verticalAlign=middle;whiteSpace=wrap;rounded=0;" parent="T-G6s2uSpHPfjvhsTkFT-14" vertex="1">
          <mxGeometry y="30" width="230" height="80" as="geometry" />
        </mxCell>
        <mxCell id="T-G6s2uSpHPfjvhsTkFT-3" value="dep.js" style="text;strokeColor=none;align=left;fillColor=none;html=1;verticalAlign=middle;whiteSpace=wrap;rounded=0;fontStyle=1" parent="T-G6s2uSpHPfjvhsTkFT-14" vertex="1">
          <mxGeometry width="60" height="30" as="geometry" />
        </mxCell>
        <mxCell id="T-G6s2uSpHPfjvhsTkFT-59" value="" style="group" parent="1" vertex="1" connectable="0">
          <mxGeometry x="-410" y="-130" width="220" height="200" as="geometry" />
        </mxCell>
        <mxCell id="T-G6s2uSpHPfjvhsTkFT-34" value="" style="rounded=0;whiteSpace=wrap;html=1;labelBackgroundColor=#FFFFFF;fontFamily=Helvetica;fontColor=#000000;" parent="T-G6s2uSpHPfjvhsTkFT-59" vertex="1">
          <mxGeometry width="220" height="190" as="geometry" />
        </mxCell>
        <mxCell id="T-G6s2uSpHPfjvhsTkFT-35" value="import { ref } from &#39;./ref.js&#39;&amp;nbsp;&lt;br&gt;import { effect } from &#39;./effect.js&#39;&lt;br&gt;const a = ref(1)&lt;br&gt;let dummy&lt;br&gt;let calls = 0&lt;br&gt;effect(() =&amp;gt; {&lt;br&gt;&lt;span style=&quot;white-space: pre;&quot;&gt; &lt;/span&gt;calls++&lt;br&gt;&lt;span style=&quot;white-space: pre;&quot;&gt; &lt;/span&gt;dummy = a.value&lt;br&gt;})&lt;br&gt;console.log(calls, dummy) // 1 1&lt;br&gt;a.value = 2&lt;br&gt;console.log(calls, dummy) // 2 2" style="text;html=1;strokeColor=none;fillColor=none;align=left;verticalAlign=top;whiteSpace=wrap;rounded=0;fontFamily=Helvetica;fontColor=#000000;horizontal=1;" parent="T-G6s2uSpHPfjvhsTkFT-59" vertex="1">
          <mxGeometry x="10" width="200" height="200" as="geometry" />
        </mxCell>
        <mxCell id="T-G6s2uSpHPfjvhsTkFT-89" style="edgeStyle=orthogonalEdgeStyle;rounded=0;orthogonalLoop=1;jettySize=auto;html=1;entryX=0.562;entryY=-0.097;entryDx=0;entryDy=0;entryPerimeter=0;fontFamily=Helvetica;fontColor=#000000;" parent="1" source="T-G6s2uSpHPfjvhsTkFT-60" target="T-G6s2uSpHPfjvhsTkFT-2" edge="1">
          <mxGeometry relative="1" as="geometry" />
        </mxCell>
        <mxCell id="T-G6s2uSpHPfjvhsTkFT-91" style="edgeStyle=orthogonalEdgeStyle;rounded=0;orthogonalLoop=1;jettySize=auto;html=1;fontFamily=Helvetica;fontColor=#000000;" parent="1" source="T-G6s2uSpHPfjvhsTkFT-60" edge="1">
          <mxGeometry relative="1" as="geometry">
            <mxPoint x="780" y="-370.0000000000002" as="targetPoint" />
          </mxGeometry>
        </mxCell>
        <mxCell id="T-G6s2uSpHPfjvhsTkFT-159" style="edgeStyle=orthogonalEdgeStyle;rounded=0;orthogonalLoop=1;jettySize=auto;html=1;fontFamily=Helvetica;fontColor=#000000;" parent="1" source="T-G6s2uSpHPfjvhsTkFT-60" edge="1">
          <mxGeometry relative="1" as="geometry">
            <mxPoint x="400" y="20" as="targetPoint" />
          </mxGeometry>
        </mxCell>
        <mxCell id="T-G6s2uSpHPfjvhsTkFT-60" value="" style="rounded=0;whiteSpace=wrap;html=1;labelBackgroundColor=#FFFFFF;fontFamily=Helvetica;fontColor=#000000;" parent="1" vertex="1">
          <mxGeometry x="-80" y="-510" width="740" height="280" as="geometry" />
        </mxCell>
        <mxCell id="T-G6s2uSpHPfjvhsTkFT-61" value="ref.js" style="text;strokeColor=none;align=left;fillColor=none;html=1;verticalAlign=middle;whiteSpace=wrap;rounded=0;fontStyle=1;container=0;" parent="1" vertex="1">
          <mxGeometry x="-80" y="-550" width="87" height="45.78947368421053" as="geometry" />
        </mxCell>
        <mxCell id="T-G6s2uSpHPfjvhsTkFT-62" value="RefImpl类" style="swimlane;whiteSpace=wrap;html=1;labelBackgroundColor=#FFFFFF;fontFamily=Helvetica;fontColor=#000000;" parent="1" vertex="1">
          <mxGeometry x="360" y="-497.10999999999996" width="280" height="234.21" as="geometry" />
        </mxCell>
        <mxCell id="T-G6s2uSpHPfjvhsTkFT-63" value="&lt;div data-lake_diagram_content_editor_data=&quot;true&quot;&gt;&lt;div data-lake_diagram_content_editor_data=&quot;true&quot;&gt;&lt;span style=&quot;background-color: initial;&quot;&gt;class RefImpl {&lt;/span&gt;&lt;/div&gt;&lt;/div&gt;&lt;div data-lake_diagram_content_editor_data=&quot;true&quot;&gt;&lt;div&gt;&amp;nbsp; &amp;nbsp; constructor(value) {&lt;/div&gt;&lt;div&gt;&amp;nbsp; &amp;nbsp; &amp;nbsp; &amp;nbsp; this._value = toReactive(value)&lt;/div&gt;&lt;div&gt;&lt;span style=&quot;white-space: pre;&quot;&gt; &lt;/span&gt;this.dep = null&lt;br&gt;&lt;/div&gt;&lt;div&gt;&amp;nbsp; &amp;nbsp; }&lt;/div&gt;&lt;div&gt;&amp;nbsp; &amp;nbsp; get value() {&lt;/div&gt;&lt;div&gt;&amp;nbsp; &amp;nbsp;&amp;nbsp;&lt;span style=&quot;white-space: pre;&quot;&gt; &lt;/span&gt;trackRefValue(this)&lt;/div&gt;&lt;div&gt;&lt;span style=&quot;white-space: pre;&quot;&gt; &lt;/span&gt;return this._value&lt;br&gt;&lt;/div&gt;&lt;div&gt;&amp;nbsp; &amp;nbsp; }&lt;/div&gt;&lt;div&gt;&amp;nbsp; &amp;nbsp; set value(newVal) {&lt;/div&gt;&lt;div&gt;&lt;span style=&quot;white-space: pre;&quot;&gt; &lt;/span&gt;this._value = newVal&lt;br&gt;&lt;/div&gt;&lt;div&gt;&lt;span style=&quot;white-space: pre;&quot;&gt; &lt;/span&gt;triggerRefValue(this, newVal)&lt;br&gt;&lt;/div&gt;&lt;div&gt;&amp;nbsp; &amp;nbsp; }&lt;/div&gt;&lt;div&gt;}&lt;/div&gt;&lt;/div&gt;" style="text;strokeColor=none;align=left;fillColor=none;html=1;verticalAlign=top;whiteSpace=wrap;rounded=0;container=0;" parent="T-G6s2uSpHPfjvhsTkFT-62" vertex="1">
          <mxGeometry x="10" y="17.11" width="250" height="208.95" as="geometry" />
        </mxCell>
        <mxCell id="T-G6s2uSpHPfjvhsTkFT-67" value="export const ref = (rawValue) =&amp;gt; {&lt;br&gt;&lt;span style=&quot;white-space: pre;&quot;&gt; &lt;/span&gt;return new RefImpl(rawValue)&lt;br&gt;}" style="text;html=1;strokeColor=none;fillColor=none;align=left;verticalAlign=middle;whiteSpace=wrap;rounded=0;fontFamily=Helvetica;fontColor=#000000;" parent="1" vertex="1">
          <mxGeometry x="-70" y="-490" width="320" height="70" as="geometry" />
        </mxCell>
        <mxCell id="T-G6s2uSpHPfjvhsTkFT-69" value="export function trackRefValue = (ref) =&amp;gt; {&lt;br&gt;&lt;span style=&quot;white-space: pre;&quot;&gt; &lt;/span&gt;trackEffects(ref.dep || (ref.dep = createDep()))&lt;br&gt;}" style="text;html=1;strokeColor=none;fillColor=none;align=left;verticalAlign=top;whiteSpace=wrap;rounded=0;fontFamily=Helvetica;fontColor=#000000;" parent="1" vertex="1">
          <mxGeometry x="-70" y="-410" width="310" height="60" as="geometry" />
        </mxCell>
        <mxCell id="T-G6s2uSpHPfjvhsTkFT-70" value="export function triggerRefValue = (ref) =&amp;gt; {&lt;br&gt;&lt;span style=&quot;white-space: pre;&quot;&gt; &lt;/span&gt;const dep = ref.dep&lt;br&gt;&lt;span style=&quot;white-space: pre;&quot;&gt; &lt;/span&gt;if (dep) {&lt;br&gt;&lt;span style=&quot;white-space: pre;&quot;&gt; &lt;/span&gt;&lt;span style=&quot;white-space: pre;&quot;&gt; &lt;/span&gt;triggerEffects(dep)&lt;br&gt;&lt;span style=&quot;white-space: pre;&quot;&gt; &lt;/span&gt;}&lt;br&gt;}" style="text;html=1;strokeColor=none;fillColor=none;align=left;verticalAlign=top;whiteSpace=wrap;rounded=0;fontFamily=Helvetica;fontColor=#000000;" parent="1" vertex="1">
          <mxGeometry x="-70" y="-340" width="410" height="60" as="geometry" />
        </mxCell>
        <mxCell id="T-G6s2uSpHPfjvhsTkFT-71" value="" style="group" parent="1" vertex="1" connectable="0">
          <mxGeometry x="210" y="-480" width="110" height="30" as="geometry" />
        </mxCell>
        <mxCell id="T-G6s2uSpHPfjvhsTkFT-65" value="" style="shape=flexArrow;endArrow=classic;html=1;rounded=0;fontFamily=Helvetica;fontColor=#000000;exitX=1;exitY=1;exitDx=0;exitDy=0;" parent="T-G6s2uSpHPfjvhsTkFT-71" source="T-G6s2uSpHPfjvhsTkFT-66" edge="1">
          <mxGeometry width="50" height="50" relative="1" as="geometry">
            <mxPoint x="80" y="29.370000000000005" as="sourcePoint" />
            <mxPoint y="29.37000000000012" as="targetPoint" />
          </mxGeometry>
        </mxCell>
        <mxCell id="T-G6s2uSpHPfjvhsTkFT-66" value="实例化一份" style="text;html=1;strokeColor=none;fillColor=none;align=center;verticalAlign=middle;whiteSpace=wrap;rounded=0;fontFamily=Helvetica;fontColor=#000000;" parent="T-G6s2uSpHPfjvhsTkFT-71" vertex="1">
          <mxGeometry x="10" width="100" height="30" as="geometry" />
        </mxCell>
        <mxCell id="T-G6s2uSpHPfjvhsTkFT-78" value="" style="group" parent="1" vertex="1" connectable="0">
          <mxGeometry x="790" y="-520" width="300" height="195.79" as="geometry" />
        </mxCell>
        <mxCell id="T-G6s2uSpHPfjvhsTkFT-75" value="" style="rounded=0;whiteSpace=wrap;html=1;labelBackgroundColor=#FFFFFF;fontFamily=Helvetica;fontColor=#000000;" parent="T-G6s2uSpHPfjvhsTkFT-78" vertex="1">
          <mxGeometry y="45.78999999999999" width="300" height="150" as="geometry" />
        </mxCell>
        <mxCell id="T-G6s2uSpHPfjvhsTkFT-76" value="toReactive.js" style="text;strokeColor=none;align=left;fillColor=none;html=1;verticalAlign=top;whiteSpace=wrap;rounded=0;fontStyle=1;container=0;" parent="T-G6s2uSpHPfjvhsTkFT-78" vertex="1">
          <mxGeometry y="15.79" width="87" height="30" as="geometry" />
        </mxCell>
        <mxCell id="T-G6s2uSpHPfjvhsTkFT-77" value="export const toReactive = (value) =&amp;gt; {&lt;br&gt;&amp;nbsp; &amp;nbsp; if (typeof value !== &#39;object&#39;) {&lt;br&gt;&amp;nbsp; &amp;nbsp;&lt;span style=&quot;white-space: pre;&quot;&gt; &lt;/span&gt;return value&lt;br&gt;&amp;nbsp; &amp;nbsp; }&lt;br&gt;&amp;nbsp; &amp;nbsp; const target = value&lt;br&gt;&amp;nbsp; &amp;nbsp; const proxy = new Proxy(target, baseHandler)&lt;br&gt;&amp;nbsp; &amp;nbsp; return proxy&lt;br&gt;}" style="text;html=1;strokeColor=none;fillColor=none;align=left;verticalAlign=top;whiteSpace=wrap;rounded=0;fontFamily=Helvetica;fontColor=#000000;" parent="T-G6s2uSpHPfjvhsTkFT-78" vertex="1">
          <mxGeometry x="10" y="55.78999999999999" width="270" height="130" as="geometry" />
        </mxCell>
        <mxCell id="T-G6s2uSpHPfjvhsTkFT-86" style="edgeStyle=orthogonalEdgeStyle;rounded=0;orthogonalLoop=1;jettySize=auto;html=1;entryX=0;entryY=0.25;entryDx=0;entryDy=0;fontFamily=Helvetica;fontColor=#000000;" parent="1" source="T-G6s2uSpHPfjvhsTkFT-35" target="T-G6s2uSpHPfjvhsTkFT-60" edge="1">
          <mxGeometry relative="1" as="geometry" />
        </mxCell>
        <mxCell id="T-G6s2uSpHPfjvhsTkFT-87" style="edgeStyle=orthogonalEdgeStyle;rounded=0;orthogonalLoop=1;jettySize=auto;html=1;entryX=0;entryY=0.576;entryDx=0;entryDy=0;entryPerimeter=0;fontFamily=Helvetica;fontColor=#000000;" parent="1" source="T-G6s2uSpHPfjvhsTkFT-35" target="T-G6s2uSpHPfjvhsTkFT-4" edge="1">
          <mxGeometry relative="1" as="geometry" />
        </mxCell>
        <mxCell id="T-G6s2uSpHPfjvhsTkFT-118" value="" style="group" parent="1" vertex="1" connectable="0">
          <mxGeometry x="790" y="-190" width="390" height="244.20999999999998" as="geometry" />
        </mxCell>
        <mxCell id="T-G6s2uSpHPfjvhsTkFT-109" value="" style="rounded=0;whiteSpace=wrap;html=1;labelBackgroundColor=#FFFFFF;fontFamily=Helvetica;fontColor=#000000;" parent="T-G6s2uSpHPfjvhsTkFT-118" vertex="1">
          <mxGeometry y="34.20999999999998" width="390" height="210" as="geometry" />
        </mxCell>
        <mxCell id="T-G6s2uSpHPfjvhsTkFT-114" value="baseHandlers.js" style="text;html=1;strokeColor=none;fillColor=none;align=left;verticalAlign=middle;whiteSpace=wrap;rounded=0;fontFamily=Helvetica;fontColor=#000000;" parent="T-G6s2uSpHPfjvhsTkFT-118" vertex="1">
          <mxGeometry width="120" height="30" as="geometry" />
        </mxCell>
        <mxCell id="T-G6s2uSpHPfjvhsTkFT-115" value="export&amp;nbsp; const baseHandlers = {&lt;br&gt;&lt;span style=&quot;white-space: pre;&quot;&gt; &lt;/span&gt;set: (target, key, value, receiver) =&amp;gt; {&lt;br&gt;&lt;span style=&quot;white-space: pre;&quot;&gt; &lt;/span&gt;&lt;span style=&quot;white-space: pre;&quot;&gt; &lt;/span&gt;const result = Reflect.set(target, key, value, receiver)&lt;br&gt;&lt;span style=&quot;white-space: pre;&quot;&gt; &lt;/span&gt;&lt;span style=&quot;white-space: pre;&quot;&gt; &lt;/span&gt;let oldValue = target[key]&lt;br&gt;&lt;span style=&quot;white-space: pre;&quot;&gt; &lt;/span&gt;&lt;span style=&quot;white-space: pre;&quot;&gt; &lt;/span&gt;trigger(target, null, key, value, oldValue)&lt;br&gt;&lt;span style=&quot;white-space: pre;&quot;&gt; &lt;/span&gt;&lt;span style=&quot;white-space: pre;&quot;&gt; &lt;/span&gt;return result&lt;br&gt;&lt;span style=&quot;white-space: pre;&quot;&gt; &lt;/span&gt;},&lt;br&gt;&lt;span style=&quot;white-space: pre;&quot;&gt; &lt;/span&gt;get: (target, key, receiver) =&amp;gt; {&lt;br&gt;&lt;span style=&quot;white-space: pre;&quot;&gt; &lt;/span&gt;&lt;span style=&quot;white-space: pre;&quot;&gt; &lt;/span&gt;const res = Reflect.get(target, key, receiver)&lt;br&gt;&lt;span style=&quot;white-space: pre;&quot;&gt; &lt;/span&gt;&lt;span style=&quot;white-space: pre;&quot;&gt; &lt;/span&gt;track(target, null, key)&lt;br&gt;&lt;span style=&quot;white-space: pre;&quot;&gt; &lt;/span&gt;&lt;span style=&quot;white-space: pre;&quot;&gt; &lt;/span&gt;return res&lt;br&gt;&lt;span style=&quot;white-space: pre;&quot;&gt; &lt;/span&gt;}&lt;br&gt;}" style="text;html=1;strokeColor=none;fillColor=none;align=left;verticalAlign=top;whiteSpace=wrap;rounded=0;fontFamily=Helvetica;fontColor=#000000;" parent="T-G6s2uSpHPfjvhsTkFT-118" vertex="1">
          <mxGeometry x="10" y="44.20999999999998" width="350" height="190" as="geometry" />
        </mxCell>
        <mxCell id="T-G6s2uSpHPfjvhsTkFT-119" style="edgeStyle=orthogonalEdgeStyle;rounded=0;orthogonalLoop=1;jettySize=auto;html=1;entryX=0.999;entryY=0.635;entryDx=0;entryDy=0;entryPerimeter=0;fontFamily=Helvetica;fontColor=#000000;" parent="1" source="T-G6s2uSpHPfjvhsTkFT-109" target="T-G6s2uSpHPfjvhsTkFT-4" edge="1">
          <mxGeometry relative="1" as="geometry" />
        </mxCell>
        <mxCell id="T-G6s2uSpHPfjvhsTkFT-120" style="edgeStyle=orthogonalEdgeStyle;rounded=0;orthogonalLoop=1;jettySize=auto;html=1;fontFamily=Helvetica;fontColor=#000000;" parent="1" source="T-G6s2uSpHPfjvhsTkFT-77" edge="1">
          <mxGeometry relative="1" as="geometry">
            <mxPoint x="935" y="-160" as="targetPoint" />
          </mxGeometry>
        </mxCell>
        <mxCell id="T-G6s2uSpHPfjvhsTkFT-156" value="" style="group;rotation=90;" parent="1" vertex="1" connectable="0">
          <mxGeometry x="-80" y="18.42" width="740" height="910" as="geometry" />
        </mxCell>
        <mxCell id="T-G6s2uSpHPfjvhsTkFT-4" value="" style="rounded=0;whiteSpace=wrap;html=1;container=0;" parent="T-G6s2uSpHPfjvhsTkFT-156" vertex="1">
          <mxGeometry width="740" height="910" as="geometry" />
        </mxCell>
        <mxCell id="T-G6s2uSpHPfjvhsTkFT-155" value="" style="group" parent="T-G6s2uSpHPfjvhsTkFT-156" vertex="1" connectable="0">
          <mxGeometry x="10" y="20" width="700" height="860" as="geometry" />
        </mxCell>
        <mxCell id="T-G6s2uSpHPfjvhsTkFT-36" value="ReactiveEffect类" style="swimlane;whiteSpace=wrap;html=1;labelBackgroundColor=#FFFFFF;fontFamily=Helvetica;fontColor=#000000;" parent="T-G6s2uSpHPfjvhsTkFT-155" vertex="1">
          <mxGeometry x="440" width="200" height="170" as="geometry" />
        </mxCell>
        <mxCell id="T-G6s2uSpHPfjvhsTkFT-6" value="&lt;div data-lake_diagram_content_editor_data=&quot;true&quot;&gt;&lt;div data-lake_diagram_content_editor_data=&quot;true&quot;&gt;&lt;span style=&quot;background-color: initial;&quot;&gt;export class ReactiveEffect {&lt;/span&gt;&lt;/div&gt;&lt;/div&gt;&lt;div data-lake_diagram_content_editor_data=&quot;true&quot;&gt;&lt;div&gt;&amp;nbsp; &amp;nbsp; constructor(fn) {&lt;/div&gt;&lt;div&gt;&amp;nbsp; &amp;nbsp; &amp;nbsp; &amp;nbsp; this.fn = fn&lt;/div&gt;&lt;div&gt;&amp;nbsp; &amp;nbsp; }&lt;/div&gt;&lt;div&gt;&amp;nbsp; &amp;nbsp; run() {&lt;/div&gt;&lt;div&gt;&amp;nbsp; &amp;nbsp; &amp;nbsp; &amp;nbsp; activeEffect = this&lt;/div&gt;&lt;div&gt;&amp;nbsp; &amp;nbsp; &amp;nbsp; &amp;nbsp; this.fn()&lt;/div&gt;&lt;div&gt;&amp;nbsp; &amp;nbsp; }&lt;/div&gt;&lt;div&gt;}&lt;/div&gt;&lt;/div&gt;" style="text;strokeColor=none;align=left;fillColor=none;html=1;verticalAlign=top;whiteSpace=wrap;rounded=0;container=0;" parent="T-G6s2uSpHPfjvhsTkFT-36" vertex="1">
          <mxGeometry x="10" y="21.05" width="180" height="148.95" as="geometry" />
        </mxCell>
        <mxCell id="T-G6s2uSpHPfjvhsTkFT-121" value="" style="group" parent="T-G6s2uSpHPfjvhsTkFT-155" vertex="1" connectable="0">
          <mxGeometry width="330" height="860" as="geometry" />
        </mxCell>
        <mxCell id="T-G6s2uSpHPfjvhsTkFT-16" value="&lt;div style=&quot;line-height: 18px;&quot;&gt;&lt;span style=&quot;background-color: rgb(255, 255, 255);&quot;&gt;// targetMap用于保存响应式对象，以target为map的key&lt;br&gt;&lt;/span&gt;&lt;div style=&quot;&quot;&gt;&lt;span style=&quot;background-color: rgb(255, 255, 255);&quot;&gt;const targetMap = new WeakMap()&lt;/span&gt;&lt;/div&gt;&lt;div style=&quot;&quot;&gt;&lt;span style=&quot;background-color: rgb(255, 255, 255);&quot;&gt;// 在get时被调用，将当前活跃的effect对象存入dep(set集合)中&lt;/span&gt;&lt;/div&gt;&lt;div style=&quot;&quot;&gt;&lt;span style=&quot;background-color: rgb(255, 255, 255);&quot;&gt;export function track(target, type, key) {&lt;/span&gt;&lt;/div&gt;&lt;div style=&quot;&quot;&gt;&lt;span style=&quot;background-color: rgb(255, 255, 255);&quot;&gt;&lt;span style=&quot;white-space: pre;&quot;&gt; &lt;/span&gt;// map没有就新建&lt;br&gt;&lt;/span&gt;&lt;/div&gt;&lt;div style=&quot;&quot;&gt;    &lt;span style=&quot;background-color: rgb(255, 255, 255);&quot;&gt;&lt;span style=&quot;white-space: pre;&quot;&gt; &lt;/span&gt;let depsMap = targetMap.get(target)&lt;/span&gt;&lt;/div&gt;&lt;div style=&quot;&quot;&gt;    &lt;span style=&quot;background-color: rgb(255, 255, 255);&quot;&gt;&lt;span style=&quot;white-space: pre;&quot;&gt; &lt;/span&gt;if (!depsMap) {&lt;/span&gt;&lt;/div&gt;&lt;div style=&quot;&quot;&gt;        &lt;span style=&quot;background-color: rgb(255, 255, 255);&quot;&gt;&lt;span style=&quot;white-space: pre;&quot;&gt; &lt;/span&gt;&lt;span style=&quot;white-space: pre;&quot;&gt; &lt;/span&gt;targetMap.set(target, (depsMap = new Map()))&lt;/span&gt;&lt;/div&gt;&lt;div style=&quot;&quot;&gt;&lt;span style=&quot;background-color: rgb(255, 255, 255);&quot;&gt;    &lt;span style=&quot;white-space: pre;&quot;&gt; &lt;/span&gt;}&lt;/span&gt;&lt;/div&gt;&lt;div style=&quot;&quot;&gt;&lt;span style=&quot;background-color: rgb(255, 255, 255);&quot;&gt;&lt;span style=&quot;white-space: pre;&quot;&gt; &lt;/span&gt;// dep没有就新建&lt;/span&gt;&lt;/div&gt;&lt;div style=&quot;&quot;&gt;    &lt;span style=&quot;background-color: rgb(255, 255, 255);&quot;&gt;&lt;span style=&quot;white-space: pre;&quot;&gt; &lt;/span&gt;let dep = depsMap.get(key)&lt;/span&gt;&lt;/div&gt;&lt;div style=&quot;&quot;&gt;    &lt;span style=&quot;background-color: rgb(255, 255, 255);&quot;&gt;&lt;span style=&quot;white-space: pre;&quot;&gt; &lt;/span&gt;if (!dep) {&lt;/span&gt;&lt;/div&gt;&lt;div style=&quot;&quot;&gt;        &lt;span style=&quot;background-color: rgb(255, 255, 255);&quot;&gt;&lt;span style=&quot;white-space: pre;&quot;&gt; &lt;/span&gt;&lt;span style=&quot;white-space: pre;&quot;&gt; &lt;/span&gt;depsMap.set(key, (dep = createDep()))&lt;/span&gt;&lt;/div&gt;&lt;div style=&quot;&quot;&gt;&lt;span style=&quot;background-color: rgb(255, 255, 255);&quot;&gt;    &lt;span style=&quot;white-space: pre;&quot;&gt; &lt;/span&gt;}&lt;/span&gt;&lt;/div&gt;&lt;div style=&quot;&quot;&gt;    &lt;span style=&quot;background-color: rgb(255, 255, 255);&quot;&gt;&lt;span style=&quot;white-space: pre;&quot;&gt; &lt;/span&gt;trackEffects(dep)&lt;/span&gt;&lt;/div&gt;&lt;div style=&quot;&quot;&gt;&lt;span style=&quot;background-color: rgb(255, 255, 255);&quot;&gt;}&lt;/span&gt;&lt;/div&gt;&lt;span style=&quot;background-color: rgb(255, 255, 255);&quot;&gt;&lt;br&gt;&lt;/span&gt;&lt;div style=&quot;&quot;&gt;&lt;span style=&quot;background-color: rgb(255, 255, 255);&quot;&gt;export function trigger(target,type,key,newValue, oldValue) {&lt;/span&gt;&lt;/div&gt;&lt;div style=&quot;&quot;&gt;&lt;span style=&quot;background-color: rgb(255, 255, 255);&quot;&gt;&lt;span style=&quot;white-space: pre;&quot;&gt; &lt;/span&gt;const depsMap = targetMap.get(target)&lt;br&gt;&amp;nbsp; &amp;nbsp; &amp;nbsp; &amp;nbsp; let deps = []&lt;br&gt;&lt;span style=&quot;white-space: pre;&quot;&gt; &lt;/span&gt;deps.push(depsMap.get(key))&lt;br&gt;&lt;/span&gt;&lt;/div&gt;&lt;div style=&quot;&quot;&gt;&lt;span style=&quot;background-color: rgb(255, 255, 255);&quot;&gt;&lt;span style=&quot;white-space: pre;&quot;&gt; &lt;/span&gt;const effects = []&lt;br&gt;&lt;/span&gt;&lt;/div&gt;&lt;div style=&quot;&quot;&gt;&lt;span style=&quot;background-color: rgb(255, 255, 255);&quot;&gt;&lt;span style=&quot;white-space: pre;&quot;&gt; &lt;/span&gt;for (const dep of deps) {&lt;/span&gt;&lt;/div&gt;&lt;div style=&quot;&quot;&gt;&lt;span style=&quot;background-color: rgb(255, 255, 255);&quot;&gt;&lt;span style=&quot;white-space: pre;&quot;&gt; &lt;/span&gt;&lt;span style=&quot;white-space: pre;&quot;&gt; &lt;/span&gt;effects.push(...dep)&lt;br&gt;&lt;/span&gt;&lt;/div&gt;&lt;div style=&quot;&quot;&gt;&lt;span style=&quot;white-space: pre;&quot;&gt; &lt;/span&gt;}&lt;/div&gt;&lt;div style=&quot;&quot;&gt;&lt;/div&gt;&lt;div style=&quot;&quot;&gt;    &lt;span style=&quot;background-color: rgb(255, 255, 255);&quot;&gt;&lt;span style=&quot;white-space: pre;&quot;&gt; &lt;/span&gt;triggerEffects(createDep(effects))&lt;/span&gt;&lt;/div&gt;&lt;div style=&quot;&quot;&gt;&lt;/div&gt;&lt;div style=&quot;&quot;&gt;&lt;span style=&quot;background-color: rgb(255, 255, 255);&quot;&gt;}&lt;/span&gt;&lt;/div&gt;&lt;span style=&quot;background-color: rgb(255, 255, 255);&quot;&gt;&lt;br&gt;&lt;/span&gt;&lt;div style=&quot;&quot;&gt;&lt;span style=&quot;background-color: rgb(255, 255, 255);&quot;&gt;export function trackEffects(dep) {&lt;/span&gt;&lt;/div&gt;&lt;div style=&quot;&quot;&gt;    &lt;span style=&quot;background-color: rgb(255, 255, 255);&quot;&gt;&lt;span style=&quot;white-space: pre;&quot;&gt; &lt;/span&gt;dep.add(activeEffect)&lt;/span&gt;&lt;/div&gt;&lt;div style=&quot;&quot;&gt;    &lt;span style=&quot;background-color: rgb(255, 255, 255);&quot;&gt;&lt;span style=&quot;white-space: pre;&quot;&gt; &lt;/span&gt;// activeEffect.deps.push(dep)&lt;/span&gt;&lt;/div&gt;&lt;div style=&quot;&quot;&gt;&lt;span style=&quot;background-color: rgb(255, 255, 255);&quot;&gt;}&lt;/span&gt;&lt;/div&gt;&lt;span style=&quot;background-color: rgb(255, 255, 255);&quot;&gt;&lt;br&gt;&lt;/span&gt;&lt;div style=&quot;&quot;&gt;&lt;span style=&quot;background-color: rgb(255, 255, 255);&quot;&gt;export function triggerEffects(dep) {&lt;/span&gt;&lt;/div&gt;&lt;div style=&quot;&quot;&gt;    &lt;span style=&quot;background-color: rgb(255, 255, 255);&quot;&gt;&lt;span style=&quot;white-space: pre;&quot;&gt; &lt;/span&gt;const effects = dep&lt;/span&gt;&lt;/div&gt;&lt;div style=&quot;&quot;&gt;    &lt;span style=&quot;background-color: rgb(255, 255, 255);&quot;&gt;&lt;span style=&quot;white-space: pre;&quot;&gt; &lt;/span&gt;for (const effect of effects) {&lt;/span&gt;&lt;/div&gt;&lt;div style=&quot;&quot;&gt;        &lt;span style=&quot;background-color: rgb(255, 255, 255);&quot;&gt;&lt;span style=&quot;white-space: pre;&quot;&gt; &lt;/span&gt;&lt;span style=&quot;white-space: pre;&quot;&gt; &lt;/span&gt;triggerEffect(effect)&lt;/span&gt;&lt;/div&gt;&lt;div style=&quot;&quot;&gt;&lt;span style=&quot;background-color: rgb(255, 255, 255);&quot;&gt;    &lt;span style=&quot;white-space: pre;&quot;&gt; &lt;/span&gt;}&lt;/span&gt;&lt;/div&gt;&lt;div style=&quot;&quot;&gt;&lt;span style=&quot;background-color: rgb(255, 255, 255);&quot;&gt;}&lt;/span&gt;&lt;/div&gt;&lt;span style=&quot;background-color: rgb(255, 255, 255);&quot;&gt;&lt;br&gt;&lt;/span&gt;&lt;div style=&quot;&quot;&gt;&lt;span style=&quot;background-color: rgb(255, 255, 255);&quot;&gt;export function triggerEffect(effect) {&lt;/span&gt;&lt;/div&gt;&lt;div style=&quot;&quot;&gt;    &lt;span style=&quot;background-color: rgb(255, 255, 255);&quot;&gt;&lt;span style=&quot;white-space: pre;&quot;&gt; &lt;/span&gt;effect.run()&lt;/span&gt;&lt;/div&gt;&lt;div style=&quot;&quot;&gt;&lt;span style=&quot;background-color: rgb(255, 255, 255);&quot;&gt;}&lt;/span&gt;&lt;/div&gt;&lt;/div&gt;" style="text;strokeColor=none;align=left;fillColor=none;html=1;verticalAlign=middle;whiteSpace=wrap;rounded=0;" parent="T-G6s2uSpHPfjvhsTkFT-121" vertex="1">
          <mxGeometry y="120" width="320" height="740" as="geometry" />
        </mxCell>
        <mxCell id="T-G6s2uSpHPfjvhsTkFT-50" value="export function effect(fn) {&lt;br&gt;&lt;span style=&quot;white-space: pre;&quot;&gt; &lt;/span&gt;const _effect = new ReactiveEffect(fn)&lt;br&gt;&lt;span style=&quot;white-space: pre;&quot;&gt; &lt;/span&gt;_effect.run()&lt;br&gt;}" style="text;html=1;strokeColor=none;fillColor=none;align=left;verticalAlign=middle;whiteSpace=wrap;rounded=0;fontFamily=Helvetica;fontColor=#000000;" parent="T-G6s2uSpHPfjvhsTkFT-121" vertex="1">
          <mxGeometry y="40" width="293.8181818181818" height="60" as="geometry" />
        </mxCell>
        <mxCell id="T-G6s2uSpHPfjvhsTkFT-58" value="export let activeEffect = null" style="text;html=1;strokeColor=none;fillColor=none;align=left;verticalAlign=middle;whiteSpace=wrap;rounded=0;fontFamily=Helvetica;fontColor=#000000;" parent="T-G6s2uSpHPfjvhsTkFT-121" vertex="1">
          <mxGeometry width="184.24242424242425" height="30" as="geometry" />
        </mxCell>
        <mxCell id="T-G6s2uSpHPfjvhsTkFT-147" value="" style="group" parent="T-G6s2uSpHPfjvhsTkFT-155" vertex="1" connectable="0">
          <mxGeometry x="360" y="210" width="340" height="310" as="geometry" />
        </mxCell>
        <mxCell id="T-G6s2uSpHPfjvhsTkFT-154" value="" style="group" parent="T-G6s2uSpHPfjvhsTkFT-147" vertex="1" connectable="0">
          <mxGeometry width="340" height="310" as="geometry" />
        </mxCell>
        <mxCell id="T-G6s2uSpHPfjvhsTkFT-49" value="" style="group" parent="T-G6s2uSpHPfjvhsTkFT-154" vertex="1" connectable="0">
          <mxGeometry width="340" height="310" as="geometry" />
        </mxCell>
        <mxCell id="T-G6s2uSpHPfjvhsTkFT-18" value="" style="shape=cylinder3;whiteSpace=wrap;html=1;boundedLbl=1;backgroundOutline=1;size=15;labelBackgroundColor=#FFFFFF;fontFamily=Helvetica;fontColor=#000000;" parent="T-G6s2uSpHPfjvhsTkFT-49" vertex="1">
          <mxGeometry width="340" height="310" as="geometry" />
        </mxCell>
        <mxCell id="T-G6s2uSpHPfjvhsTkFT-37" value="" style="group" parent="T-G6s2uSpHPfjvhsTkFT-49" vertex="1" connectable="0">
          <mxGeometry x="20" width="320" height="260" as="geometry" />
        </mxCell>
        <mxCell id="T-G6s2uSpHPfjvhsTkFT-19" value="// targetMap用于保存响应式对象，以target为map的key&lt;br style=&quot;border-color: var(--border-color);&quot;&gt;&lt;div style=&quot;border-color: var(--border-color);&quot;&gt;&lt;span style=&quot;border-color: var(--border-color);&quot;&gt;const targetMap = new WeakMap()&lt;/span&gt;&lt;/div&gt;&lt;div style=&quot;&quot;&gt;&lt;span style=&quot;border-color: var(--border-color);&quot;&gt;&lt;br&gt;&lt;/span&gt;&lt;/div&gt;" style="text;strokeColor=none;align=left;fillColor=none;html=1;verticalAlign=middle;whiteSpace=wrap;rounded=0;fontFamily=Helvetica;fontColor=#000000;" parent="T-G6s2uSpHPfjvhsTkFT-37" vertex="1">
          <mxGeometry y="20" width="320" height="120" as="geometry" />
        </mxCell>
        <mxCell id="T-G6s2uSpHPfjvhsTkFT-24" value="" style="group" parent="T-G6s2uSpHPfjvhsTkFT-37" vertex="1" connectable="0">
          <mxGeometry x="10" y="100" width="240" height="70" as="geometry" />
        </mxCell>
        <mxCell id="T-G6s2uSpHPfjvhsTkFT-20" value="target" style="text;html=1;strokeColor=none;fillColor=none;align=center;verticalAlign=middle;whiteSpace=wrap;rounded=0;fontFamily=Helvetica;fontColor=#000000;" parent="T-G6s2uSpHPfjvhsTkFT-24" vertex="1">
          <mxGeometry y="20" width="60" height="30" as="geometry" />
        </mxCell>
        <mxCell id="T-G6s2uSpHPfjvhsTkFT-21" value="new Set(effects)" style="shape=cylinder3;whiteSpace=wrap;html=1;boundedLbl=1;backgroundOutline=1;size=15;labelBackgroundColor=#FFFFFF;fontFamily=Helvetica;fontColor=#000000;" parent="T-G6s2uSpHPfjvhsTkFT-24" vertex="1">
          <mxGeometry x="140" width="100" height="70" as="geometry" />
        </mxCell>
        <mxCell id="T-G6s2uSpHPfjvhsTkFT-23" value="" style="endArrow=classic;html=1;rounded=0;fontFamily=Helvetica;fontColor=#000000;" parent="T-G6s2uSpHPfjvhsTkFT-24" edge="1">
          <mxGeometry width="50" height="50" relative="1" as="geometry">
            <mxPoint x="60" y="34.33000000000004" as="sourcePoint" />
            <mxPoint x="130" y="34.33000000000004" as="targetPoint" />
          </mxGeometry>
        </mxCell>
        <mxCell id="T-G6s2uSpHPfjvhsTkFT-92" value="dep" style="text;html=1;strokeColor=none;fillColor=none;align=center;verticalAlign=middle;whiteSpace=wrap;rounded=0;fontFamily=Helvetica;fontColor=#000000;" parent="T-G6s2uSpHPfjvhsTkFT-24" vertex="1">
          <mxGeometry x="160" width="60" height="30" as="geometry" />
        </mxCell>
        <mxCell id="T-G6s2uSpHPfjvhsTkFT-29" value="" style="group" parent="T-G6s2uSpHPfjvhsTkFT-37" vertex="1" connectable="0">
          <mxGeometry x="10" y="190" width="240" height="70" as="geometry" />
        </mxCell>
        <mxCell id="T-G6s2uSpHPfjvhsTkFT-161" value="" style="group" parent="T-G6s2uSpHPfjvhsTkFT-29" vertex="1" connectable="0">
          <mxGeometry width="240" height="70" as="geometry" />
        </mxCell>
        <mxCell id="T-G6s2uSpHPfjvhsTkFT-30" value="target1" style="text;html=1;strokeColor=none;fillColor=none;align=center;verticalAlign=middle;whiteSpace=wrap;rounded=0;fontFamily=Helvetica;fontColor=#000000;" parent="T-G6s2uSpHPfjvhsTkFT-161" vertex="1">
          <mxGeometry y="20" width="60" height="30" as="geometry" />
        </mxCell>
        <mxCell id="T-G6s2uSpHPfjvhsTkFT-31" value="new Set(effects)" style="shape=cylinder3;whiteSpace=wrap;html=1;boundedLbl=1;backgroundOutline=1;size=15;labelBackgroundColor=#FFFFFF;fontFamily=Helvetica;fontColor=#000000;" parent="T-G6s2uSpHPfjvhsTkFT-161" vertex="1">
          <mxGeometry x="140" width="100" height="70" as="geometry" />
        </mxCell>
        <mxCell id="T-G6s2uSpHPfjvhsTkFT-32" value="" style="endArrow=classic;html=1;rounded=0;fontFamily=Helvetica;fontColor=#000000;" parent="T-G6s2uSpHPfjvhsTkFT-161" edge="1">
          <mxGeometry width="50" height="50" relative="1" as="geometry">
            <mxPoint x="60" y="34.33000000000004" as="sourcePoint" />
            <mxPoint x="130" y="34.33000000000004" as="targetPoint" />
          </mxGeometry>
        </mxCell>
        <mxCell id="T-G6s2uSpHPfjvhsTkFT-108" value="dep" style="text;html=1;strokeColor=none;fillColor=none;align=center;verticalAlign=middle;whiteSpace=wrap;rounded=0;fontFamily=Helvetica;fontColor=#000000;" parent="T-G6s2uSpHPfjvhsTkFT-161" vertex="1">
          <mxGeometry x="160" width="60" height="30" as="geometry" />
        </mxCell>
        <mxCell id="T-G6s2uSpHPfjvhsTkFT-33" value="targetMap(WeakMap类型)" style="text;html=1;strokeColor=none;fillColor=none;align=center;verticalAlign=middle;whiteSpace=wrap;rounded=0;fontFamily=Helvetica;fontColor=#000000;" parent="T-G6s2uSpHPfjvhsTkFT-154" vertex="1">
          <mxGeometry x="110" width="135" height="30" as="geometry" />
        </mxCell>
        <mxCell id="T-G6s2uSpHPfjvhsTkFT-151" value="" style="group" parent="T-G6s2uSpHPfjvhsTkFT-155" vertex="1" connectable="0">
          <mxGeometry x="300" y="60" width="110" height="30" as="geometry" />
        </mxCell>
        <mxCell id="T-G6s2uSpHPfjvhsTkFT-152" value="" style="shape=flexArrow;endArrow=classic;html=1;rounded=0;fontFamily=Helvetica;fontColor=#000000;exitX=1;exitY=1;exitDx=0;exitDy=0;" parent="T-G6s2uSpHPfjvhsTkFT-151" source="T-G6s2uSpHPfjvhsTkFT-153" edge="1">
          <mxGeometry width="50" height="50" relative="1" as="geometry">
            <mxPoint x="80" y="29.370000000000005" as="sourcePoint" />
            <mxPoint y="29.37000000000012" as="targetPoint" />
          </mxGeometry>
        </mxCell>
        <mxCell id="T-G6s2uSpHPfjvhsTkFT-153" value="实例化一份" style="text;html=1;strokeColor=none;fillColor=none;align=center;verticalAlign=middle;whiteSpace=wrap;rounded=0;fontFamily=Helvetica;fontColor=#000000;" parent="T-G6s2uSpHPfjvhsTkFT-151" vertex="1">
          <mxGeometry x="10" width="100" height="30" as="geometry" />
        </mxCell>
        <mxCell id="T-G6s2uSpHPfjvhsTkFT-162" value="" style="group" parent="T-G6s2uSpHPfjvhsTkFT-156" vertex="1" connectable="0">
          <mxGeometry x="400" y="571.58" width="240" height="70" as="geometry" />
        </mxCell>
        <mxCell id="T-G6s2uSpHPfjvhsTkFT-163" value="target3" style="text;html=1;strokeColor=none;fillColor=none;align=center;verticalAlign=middle;whiteSpace=wrap;rounded=0;fontFamily=Helvetica;fontColor=#000000;" parent="T-G6s2uSpHPfjvhsTkFT-162" vertex="1">
          <mxGeometry y="20" width="60" height="30" as="geometry" />
        </mxCell>
        <mxCell id="T-G6s2uSpHPfjvhsTkFT-164" value="new Set(effects)" style="shape=cylinder3;whiteSpace=wrap;html=1;boundedLbl=1;backgroundOutline=1;size=15;labelBackgroundColor=#FFFFFF;fontFamily=Helvetica;fontColor=#000000;" parent="T-G6s2uSpHPfjvhsTkFT-162" vertex="1">
          <mxGeometry x="140" width="100" height="70" as="geometry" />
        </mxCell>
        <mxCell id="T-G6s2uSpHPfjvhsTkFT-165" value="" style="endArrow=classic;html=1;rounded=0;fontFamily=Helvetica;fontColor=#000000;" parent="T-G6s2uSpHPfjvhsTkFT-162" edge="1">
          <mxGeometry width="50" height="50" relative="1" as="geometry">
            <mxPoint x="60" y="34.33000000000004" as="sourcePoint" />
            <mxPoint x="130" y="34.33000000000004" as="targetPoint" />
          </mxGeometry>
        </mxCell>
        <mxCell id="T-G6s2uSpHPfjvhsTkFT-166" value="dep" style="text;html=1;strokeColor=none;fillColor=none;align=center;verticalAlign=middle;whiteSpace=wrap;rounded=0;fontFamily=Helvetica;fontColor=#000000;" parent="T-G6s2uSpHPfjvhsTkFT-162" vertex="1">
          <mxGeometry x="160" width="60" height="30" as="geometry" />
        </mxCell>
        <mxCell id="T-G6s2uSpHPfjvhsTkFT-167" value="不属于特定targetMap的dep" style="text;html=1;strokeColor=none;fillColor=none;align=left;verticalAlign=middle;whiteSpace=wrap;rounded=0;fontFamily=Helvetica;fontColor=#000000;" parent="T-G6s2uSpHPfjvhsTkFT-162" vertex="1">
          <mxGeometry x="-20" width="160" height="30" as="geometry" />
        </mxCell>
        <mxCell id="T-G6s2uSpHPfjvhsTkFT-158" style="edgeStyle=orthogonalEdgeStyle;rounded=0;orthogonalLoop=1;jettySize=auto;html=1;entryX=0.5;entryY=1;entryDx=0;entryDy=0;fontFamily=Helvetica;fontColor=#000000;" parent="1" source="T-G6s2uSpHPfjvhsTkFT-4" target="T-G6s2uSpHPfjvhsTkFT-2" edge="1">
          <mxGeometry relative="1" as="geometry" />
        </mxCell>
        <mxCell id="T-G6s2uSpHPfjvhsTkFT-168" value="&lt;b&gt;effect.js&lt;/b&gt;" style="text;html=1;strokeColor=none;fillColor=none;align=left;verticalAlign=middle;whiteSpace=wrap;rounded=0;fontFamily=Helvetica;fontColor=#000000;" parent="1" vertex="1">
          <mxGeometry x="-80" y="-11.580000000000013" width="60" height="30" as="geometry" />
        </mxCell>
        <mxCell id="F8KWVKvnSCSEdcvsusQa-1" value="const a = ref(1)" style="text;html=1;align=left;verticalAlign=middle;resizable=0;points=[];autosize=1;strokeColor=none;fillColor=none;" vertex="1" parent="1">
          <mxGeometry x="-1530" y="-535" width="100" height="30" as="geometry" />
        </mxCell>
        <mxCell id="F8KWVKvnSCSEdcvsusQa-4" value="1.首先需要通过ref生成一个对象，具有value属性（get value）（因为后边会调用a.value）&lt;br&gt;2.在a.value之后需要触发订阅它的事件（set value）&lt;br&gt;3.需要有一个袋子来存放哪些事件订阅了它（dep）" style="text;html=1;align=left;verticalAlign=middle;resizable=0;points=[];autosize=1;strokeColor=none;fillColor=none;" vertex="1" parent="1">
          <mxGeometry x="-1420" y="-550" width="500" height="60" as="geometry" />
        </mxCell>
        <mxCell id="F8KWVKvnSCSEdcvsusQa-5" value="" style="shape=image;verticalLabelPosition=bottom;labelBackgroundColor=default;verticalAlign=top;aspect=fixed;imageAspect=0;image=data:image/png,iVBORw0KGgoAAAANSUhEUgAAApEAAAEDCAYAAABtbV8eAAAMP2lDQ1BJQ0MgUHJvZmlsZQAASImVVwdYU8kWnluSkEBoAQSkhN4EkRpASggt9I4gKiEJEEqMgaBiRxcVXLuIgA1dFVGwAmJBETuLYu+LBRVlXSzYlTcpoOu+8r35vrnz33/O/OfMuTP33gFA7ThHJMpF1QHIExaIY4P96eOSU+ikp4AMtGF1BM4cbr6IGR0dDmAZav9e3l0HiLS9Yi/V+mf/fy0aPH4+FwAkGuJ0Xj43D+IDAODVXJG4AACilDebWiCSYliBlhgGCPEiKc6U42opTpfjPTKb+FgWxO0AKKlwOOJMAFQvQZ5eyM2EGqr9EDsKeQIhAGp0iH3y8ibzIE6D2BraiCCW6jPSf9DJ/Jtm+rAmh5M5jOVzkRWlAEG+KJcz/f9Mx/8uebmSIR+WsKpkiUNipXOGebuZMzlMilUg7hOmR0ZBrAnxBwFPZg8xSsmShCTI7VEDbj4L5gzoQOzI4wSEQWwAcZAwNzJcwadnCILYEMMVgk4TFLDjIdaFeBE/PzBOYbNJPDlW4QttzBCzmAr+LEcs8yv1dV+Sk8BU6L/O4rMV+phqUVZ8EsQUiM0LBYmREKtC7JCfExemsBlblMWKHLIRS2Kl8ZtDHMsXBvvL9bHCDHFQrMK+NC9/aL7YpiwBO1KB9xVkxYfI84O1czmy+OFcsEt8ITNhSIefPy58aC48fkCgfO7YM74wIU6h80FU4B8rH4tTRLnRCnvclJ8bLOVNIXbJL4xTjMUTC+CClOvjGaKC6Hh5nHhRNic0Wh4PvhyEAxYIAHQggTUdTAbZQNDZ19QH7+Q9QYADxCAT8IG9ghkakSTrEcJrHCgCf0LEB/nD4/xlvXxQCPmvw6z8ag8yZL2FshE54AnEeSAM5MJ7iWyUcNhbIngMGcE/vHNg5cJ4c2GV9v97foj9zjAhE65gJEMe6WpDlsRAYgAxhBhEtMH1cR/cCw+HVz9YnXAG7jE0j+/2hCeELsJDwjVCN+HWJEGx+KcoI0A31A9S5CL9x1zgllDTFffHvaE6VMZ1cH1gj7tAP0zcF3p2hSxLEbc0K/SftP82gx+ehsKO7EhGySPIfmTrn0eq2qq6DqtIc/1jfuSxpg/nmzXc87N/1g/Z58E27GdLbBG2HzuDncDOYUewJkDHWrFmrAM7KsXDq+uxbHUNeYuVxZMDdQT/8Df0ZKWZzHesc+x1/CLvK+BPk76jAWuyaLpYkJlVQGfCLwKfzhZyHUbRnRydnAGQfl/kr683MbLvBqLT8Z2b/wcA3q2Dg4OHv3OhrQDsdYfb/9B3zpoBPx3KAJw9xJWIC+UcLr0Q4FtCDe40PWAEzIA1nI8TcANewA8EglAQBeJBMpgIo8+C61wMpoKZYB4oAWVgOVgDKsFGsAXsALvBPtAEjoAT4DS4AC6Ba+AOXD094AXoB+/AZwRBSAgVoSF6iDFigdghTggD8UECkXAkFklG0pBMRIhIkJnIfKQMWYlUIpuRWmQvcgg5gZxDupBbyAOkF3mNfEIxVAXVQg1RS3Q0ykCZaBgaj05AM9EpaBG6AF2KVqA16C60ET2BXkCvod3oC3QAA5gypoOZYPYYA2NhUVgKloGJsdlYKVaO1WD1WAt8zlewbqwP+4gTcRpOx+3hCg7BE3AuPgWfjS/BK/EdeCPejl/BH+D9+DcClWBAsCN4EtiEcYRMwlRCCaGcsI1wkHAK7qUewjsikahDtCK6w72YTMwmziAuIa4nNhCPE7uIj4gDJBJJj2RH8iZFkTikAlIJaR1pF6mVdJnUQ/qgpKxkrOSkFKSUoiRUKlYqV9qpdEzpstJTpc9kdbIF2ZMcReaRp5OXkbeSW8gXyT3kzxQNihXFmxJPyabMo1RQ6imnKHcpb5SVlU2VPZRjlAXKc5UrlPcon1V+oPxRRVPFVoWlkqoiUVmqsl3luMotlTdUKtWS6kdNoRZQl1JrqSep96kfVGmqDqpsVZ7qHNUq1UbVy6ov1chqFmpMtYlqRWrlavvVLqr1qZPVLdVZ6hz12epV6ofUb6gPaNA0xmhEaeRpLNHYqXFO45kmSdNSM1CTp7lAc4vmSc1HNIxmRmPRuLT5tK20U7QeLaKWlRZbK1urTGu3VqdWv7amtot2ovY07Srto9rdOpiOpQ5bJ1dnmc4+nes6n0YYjmCO4I9YPKJ+xOUR73VH6vrp8nVLdRt0r+l+0qPrBerl6K3Qa9K7p4/r2+rH6E/V36B/Sr9vpNZIr5HckaUj9428bYAa2BrEGsww2GLQYTBgaGQYbCgyXGd40rDPSMfIzyjbaLXRMaNeY5qxj7HAeLVxq/FzujadSc+lV9Db6f0mBiYhJhKTzSadJp9NrUwTTItNG0zvmVHMGGYZZqvN2sz6zY3NI8xnmteZ37YgWzAssizWWpyxeG9pZZlkudCyyfKZla4V26rIqs7qrjXV2td6inWN9VUbog3DJsdmvc0lW9TW1TbLtsr2oh1q52YnsFtv1zWKMMpjlHBUzagb9ir2TPtC+zr7Bw46DuEOxQ5NDi9Hm49OGb1i9JnR3xxdHXMdtzreGaM5JnRM8ZiWMa+dbJ24TlVOV52pzkHOc5ybnV+52LnwXTa43HSluUa4LnRtc/3q5u4mdqt363U3d09zr3a/wdBiRDOWMM56EDz8PeZ4HPH46OnmWeC5z/MvL3uvHK+dXs/GWo3lj9069pG3qTfHe7N3tw/dJ81nk0+3r4kvx7fG96GfmR/Pb5vfU6YNM5u5i/nS39Ff7H/Q/z3LkzWLdTwACwgOKA3oDNQMTAisDLwfZBqUGVQX1B/sGjwj+HgIISQsZEXIDbYhm8uuZfeHuofOCm0PUwmLC6sMexhuGy4Ob4lAI0IjVkXcjbSIFEY2RYEodtSqqHvRVtFTog/HEGOiY6pinsSOiZ0ZeyaOFjcpbmfcu3j/+GXxdxKsEyQJbYlqiamJtYnvkwKSViZ1jxs9bta4C8n6yYLk5hRSSmLKtpSB8YHj14zvSXVNLUm9PsFqwrQJ5ybqT8ydeHSS2iTOpP1phLSktJ1pXzhRnBrOQDo7vTq9n8viruW+4PnxVvN6+d78lfynGd4ZKzOeZXpnrsrszfLNKs/qE7AElYJX2SHZG7Pf50TlbM8ZzE3KbchTykvLOyTUFOYI2ycbTZ42uUtkJyoRdU/xnLJmSr84TLwtH8mfkN9coAV/5Dsk1pJfJA8KfQqrCj9MTZy6f5rGNOG0jum20xdPf1oUVPTbDHwGd0bbTJOZ82Y+mMWctXk2Mjt9dtscszkL5vTMDZ67Yx5lXs6834sdi1cWv52fNL9lgeGCuQse/RL8S12Jaom45MZCr4UbF+GLBIs6FzsvXrf4Wymv9HyZY1l52Zcl3CXnfx3za8Wvg0szlnYuc1u2YTlxuXD59RW+K3as1FhZtPLRqohVjavpq0tXv10zac25cpfyjWspayVruyvCK5rXma9bvu5LZVbltSr/qoZqg+rF1e/X89Zf3uC3oX6j4cayjZ82CTbd3By8ubHGsqZ8C3FL4ZYnWxO3nvmN8VvtNv1tZdu+bhdu794Ru6O91r22dqfBzmV1aJ2krndX6q5LuwN2N9fb129u0Gko2wP2SPY835u29/q+sH1t+xn76w9YHKg+SDtY2og0Tm/sb8pq6m5Obu46FHqorcWr5eBhh8Pbj5gcqTqqfXTZMcqxBccGW4taB46LjvedyDzxqG1S252T405ebY9p7zwVdurs6aDTJ88wz7Se9T575JznuUPnGeebLrhdaOxw7Tj4u+vvBzvdOhsvul9svuRxqaVrbNexy76XT1wJuHL6KvvqhWuR17quJ1y/eSP1RvdN3s1nt3JvvbpdePvznbl3CXdL76nfK79vcL/mD5s/Grrduo8+CHjQ8TDu4Z1H3EcvHuc//tKz4An1SflT46e1z5yeHekN6r30fPzznheiF5/7Sv7U+LP6pfXLA3/5/dXRP66/55X41eDrJW/03mx/6/K2bSB64P67vHef35d+0Puw4yPj45lPSZ+efp76hfSl4qvN15ZvYd/uDuYNDoo4Yo7sVwCDFc3IAOD1dgCoyQDQ4PmMMl5+/pMVRH5mlSHwn7D8jCgrbgDUw//3mD74d3MDgD1b4fEL6qulAhBNBSDeA6DOzsN16KwmO1dKCxGeAzaxv6bnpYN/U+Rnzh/i/rkFUlUX8HP7L93bfI1G+n1oAAAAOGVYSWZNTQAqAAAACAABh2kABAAAAAEAAAAaAAAAAAACoAIABAAAAAEAAAKRoAMABAAAAAEAAAEDAAAAAMN/BhcAAEAASURBVHgB7J0HXBXHE8d/gDQVFVAERMSuKPbeWzQajSW2xJiiqaZqqokxvZtuTEyMUaPmHxM19t4idkCwgyJY6E16h//MPu7xQMoDsSAzfHh3t+3uvne3Nzc7u2uSmxGSCxEhIASEgBAQAkJACAgBIVAGAqZlSCtJhYAQEAJCQAgIASEgBISAIlANmYGCQggIASEgBISAEBACQkAIlImASS5JmXJIYiEgBISAEBACQkAICIEqT0Cas6v8LSAAhIAQEAJCQAgIASFQdgKiRJadmeQQAkJACAgBISAEhECVJyBKZJW/BQSAEBACQkAICAEhIATKTkCUyLIzkxxCQAgIASEgBISAEKhUBHJycpCYlFTsMWdlZSM9Pb3Y+KIiqhUVKGFCQAgIASEgBISAEKgKBE6cOo2vvp2PIQP7Y+qUyXflKS9e+gf27T+ozs3O1hbD7hmEe4cOUdtpaWn46+81+M/zILKys+HeqiVeev5ZWFlZlspCLJGlIpIEQkAICAEhIASEwN1K4OgxL1QzM8OhI1536ynCvJo5Xp/1Er6b9xmGDh6IP1etRmRklDpfLx9feB48jDmzX8MH78xGUPAlbNi8xSgWZbZEhkdEYMEvS3Di9BlYWVqib68eeOKxKbCkdREhIASEgBAQAkJACFQWAjzK4ZGj3pj4wFisXPUPLl+5CteGLurw/179LzIzMxFw4QJiYuLQu2d3TBw/Fqampjjm7YNjx3yQQ/nPnPVH82aN8dT0x1CjRo0ST52tnlu37cTrr7ykT/fvhk3IyszC+HGjcdzXDz70P/2xR1T80WPeOH32LB5/5GG1fTUkFMuW/4mrIWFwcLDH41OnoFEjV31Ze/ftx979nhgxbCi6de2sDze0sN47bAj+WbuOzuE47hs+FAdIgezYvh0auzVS6Xt274qDh45iwrgx+vzFrZTZEpmQmESmzhb44sO5eO2l5+hgD+DXxX8UV76ECwEhIASEgBAQAkLgjiQQfOkyMkhR7NWrO+rXd4C3z3H9cV4MCsa2nbvR3sMDo0eNwI5de+Drd1LFR0fH4IiXN7Kzs/DY1AcRHHyFFLP1+rzFrTRybUhK4TkEXgxSSbKp+XjDxi1wdqqvtmNi43DW/7w+e3RMDCmxuklhkpKS8e4Hn5CiWh0znpkOx/r1MY+a4Q2H+w6LiCRL4mXExMbqyyi8EhoWrpqtmzR2U1EWFubIzMrUJ8uic0pISNBvl7RSZiWyRbOmmDxhLGrVqonsnGyC647T5/xL2ofECQEhIASEgBAQAkLgjiPgRdY4Vh5tatZEl44dcOhowSZtJydHjB09EkMGDUDbNq3hd1KnRGon8vQT05TFb9TIe/UKphZX1LJ2rVpo3rQJPA8cUtGsULIfYudOHYtKXiDs4OEjKm3P7t2QmZGBznS8CYmJCDh/QZ/Oo6077rt3KJo1baoPM1zJoHzf/LCAdLc2aE0GQZYeVN6Jk6eVFdTX74SyQvIxsYJbmpS5OZu19udmzYa5eTW0a+OOS5evlLYPiRcCQkAICAEhIASEwB1H4DApjWwU42bgpOQkRJAl79q1a6hTp4461iZ5Tby84daoEQ6QIqdJLRsbfecTbgKPjYtDSkoKqlevriUpcjmgf18s/WMlHnn4QXh6HkKnDu2McgkMC49Qvpv78xRQLrxd2zZIS8vvUd3WvTX4vyhhpfCb7xeoqBlPP6lP0rlje0SMHK5alXPIONi1Sycc8/KBGfmJliZlViJ/W7YCnemEP3jnDVX2V98twIlTZ0rbj8QLASEgBISAEBACQuCOIcBN0txcXLuWDY6Q76Em3sf9MJh6arOEk+KmSVRUNBo2cNY2lRWQFTNWtrgcC3NzvQLJw+ms+metSsu9oOvUqa3P14Wsjr8uXqqsf97HffHCjKf0ceZURrqBUsj9UDSxzSvj5ReeLVbBCyclmBXhBs5OqFvXXsuqmrwXLFyE0NBwfPT+23rllxNYWFhgzKj7MHrkCJiYmIB9Qes51NPnLWmlzM3Z9rZ25D+QQc6mWdRuH4B1m7aWVL7ECQEhIASEgBAQAkLgjiPAChz3yn7nrdfxxqsvq3/uYHL4yDH9sXJrKzcXh4SGwffEKXTs0F4fxyu79uwj/8FE7Nm7X3VO0SLZT3HL9p3qP76QfyEPncP7+emX31RyD7ImatK8WROlnF6iVl/2XTxKnXc06UTN19zMvGXbDrI+piErK4t6lB9T1k8tzR6yqH79/Y+q448Wxsslf6xQze3PPDWN0qcqRVMbMzI5ORm8v+zsHJyiTtNb6bjvHTLIMHux62W2RI69fwTeeOdDdO0/DLVq1iBtvS8uXrxU7A4kQggIASEgBISAEBACdxqBI9SUzQocW9806dypAxb9vkw/6LatnS0+/vwrFc3+kWxF1MTaygpr/t2AFf/7W1khH35okhZV6nJAv944Tv6H/fr0LGBVdHJ0VE3Ucz/8VCm4TZs0RnJKsirPhaygT057FL8vXY6/16xTYdyk3qZ1K/3+tDMxPCeO9DxwWCmgn837Rp92IDWrPzb1ISQnp4D3pwn7f/br21vbLHFpQtpybokpionkHkRsnjWjru4iQkAICAEhIASEgBC4mwh8Pu9buFJv6gfG3E+KVjJsbXV+knyObA3cR4Nzf/rBXBr+JxZ2pGzy0D8VJWy9rEnDBRXll8hqG+/TnHpVc0edihDucBMXdw329vaoVq10X0htn2W2RGoZ7QmYiBAQAkJACAgBISAEKhsBnt7vqedeLvawly76SR/HQ+A8OWO2ftswji1+r7w5Rx93N600dnPFe3Pyz7uocyu3JbKowiRMCAgBISAEhIAQEAJ3AwEeUqcWWfqK6u18/sJFGvA7BNwkXJVFlMiqfPXl3IWAEBACQkAICAEhUE4CZu+RlDPvbc/GXetPnz6N89RzysHBgdrxy906X+K5hIeHYz9NI3SBpj7i8aMaGHTxLzFjocgrV67i3Llzqqt97doV48dQaBdGb/LwAzzIKrsllJVbRkam6g3GwwJozrt8Lbx9fKk8uzKXx9M68Yj8PAYp+5XwdJqacK84niaK49jfpE7t/GEStDS3a8nexEEX4nHaLw6WVmaoaWNe4qGc8YuF1+FIXDgXT+diAjt7qxLT347Is+cCkEv3RmlTd92OYyvrPs8FnEdOTq6a3cHYvCmpqTh77jwiIqNoAOKCQ1yUpzxj98vPo/fxE7Clsel4DN7KKDdSp9zI+bJ/GE9Vd/58ICypTiptjL4b2ZfkvTECJdX1N1Zy1ch9J74PK84LtAzXkMcwatykmfpv36ETZs58Bb40V2RZhMvo1LkrPv/yK6xevUZljY6O1perld+jp3E9jEraN48TdYbmrvzqm2+xfceOkpIWG8dKaL/+A7Dsj+XkEBtTbLpbFcGDls7/+VcaIqD0Eem1Y+IhAN58533yDXkRz898HU/NeAk8LRQLz+fJ5fFApWUVf3rZ8yj5S2jwVZ4/1FCuXA2hfQSpOFbC7xTJJuVkwohteG66J9b87yKuxeYP9lrcMQZdSMDZU9fw5OyDuBgQX1yy2xr+9XfzlcJ+Ww+ignb+99oNuFSGe+YofVTNo3Fv9/znWeQsXKvWrAffjzdDwiOisGnbDjVkx80o/1aUWdY6hcfoe/SJZ9X/9KefxyfUA/YMzd5RFmHF9dU338G8b35QU9IVHkqlLGUZpv36Iz9c8L8zn1HD47zV62xE4WvG7wJNeKDrJ599Edu279KCil2WVNcXm+kmRiRcy8C7rx7F8H6b4NL6TwScuXYT93bjRd+J78Pb8skbGKibomfXTt1YR7/+ugiz33oLmzZuMLp30/IVKzBy5H34+KMP9VeGrWJ79+zCuvUbsHLln/jrfyvLbBXTF2aw0oHGheJ/T09PeHi0NYgxfvX335fg1VdfwXMznjU+001MyRbDj99/BzVpmCZjhC2NPEenB81S9PJzz6AG5Tt48Ii+Z1hQ8CXUqF6jXFYAnhieR8fnSezt7e0KHA4P+JpI0zr9R6P6N2niViDudm547g5DZEwa9hwaRb3njPsWu+8BN/SlSuvrFWfQss2d1zGNZ1vgOWTdGrneTrQVsu9Y6mXICkajhi5Gl7eLxnnr26sHBtLQG4WFrc7TaCgMh3p1C0dVyDaPRce9MG1salZIebejkLLWKdy6wPLB3LfAPUN5gOOfflmM77/+XN/CUdp5sGWLe83++N28Inuxlpa/qPj4ON0zOmFq06Kiq3SYDQ0nw3ItPgGN8kjs2fefetb69e2VF1L8oqS6vvhcNy8mlurw+o7WGDjQGSdXJcC1se78bt4eb6zkO/F9eFuUyHM013arVi1JKWisiI4aNRL/rlunKhIrGncpPj4e3/8wH/v+24+ePbpj6sNT0KKFbo7HJUuW0ryOh7Bjx040bdYMTz39DAYNHIjJkyepaYMa0bREsdT1vWePHuB1TRb9thgnac7LgIAAjL7/flJavNWE47/8/BON3G6Ft+e8A9eGDXGAyuYmsGeeehJ9+uS/TFKpmYutpa1attSKNHqZSS/mPXv3YtYrM43OU1LCv/5eAx6vql8f3UPLvcy+/Pp7jBszCu4G40UVVQYre78vW6mieN5zl7GjCyRjyyJXCr5+p2BqYgqeD5THjGIlj+fofHTqg/rpmYYNHazPy9bC+vXrYv5Pv4K/NrvQWFuP0kuXhS25PI4WvzS4Cbxr546YNGFcgRfFeWrObuyWf730BdPKxaBLarwsHj/LUFixXU0T3vNMAzY2NTDsniHo2b0r+IXMjF5/5SXD5PCnwfH/ofRvvjZTvXD8/f3xzbffoXPnznjyiekF0ha3cei/cPy+0B/nzl9DXGomnn1kP5yoEnr/K57LNAfffuKHgwcikZiSiaFDGuCJF92p2dqgeZ6+dG2rmcOlUUFlISsrB2v/DMK+XSE4cSYOHq1s8dkPPWBT20IdCltFvv/8BM7QcsxoVzz4eAvY17vx5vDtO3dj+6496mOrPX0g8cC79fIUJbY2/LHyLxrwNgLdu3Wm2QyG66cC+4YGs61PLiQnz5wh9wzggdGj1FRZhtzmffW1cgGZ8/bbcHFpYBhV5DoPdDv/50U0nMZI8Hho/Nz8uHAxJk8YA8f69bFt5x41qC9PTRZGljuejmzy+DH6snbu+Q8+vifUhyj3KuSPynp1dUof3xPrN29X93AzqneGDe6vP5efFy0FN2OzInOMrJF+NKDwkEH9yZm+lbLU/7jwN+WCYkluFs8++Zh+f0k0ttqi3/9AG0rHgxCzEnj/ffeiWd7HTmJiEv6hMeRC6f6vX88egwf009/jPEgwW0qDiHFtejFbW1vB3vb2fVjczDqFFb0Dhw5TvXABdWiIlGmPUH3evBm4LuIx7hrRECosA/r3wcJFS9R1YNb88fjHir9w6sw5St8U99P916SxGyeFD80o8u+GzYiMjFT3yfsffwE7Kptn8tBk48ZN2LhpEx6cPBn9+/fTgotdpqZk4aUnDyAhXteq8O5rx1DN3BTTnmmJHn11dc/aPwMRG52hyti4/jLM6A06f1EfUmSzwNbLH5b0Va4q/vSc/zjvJL5f3Fel5Xv7j1/8sW7NZZoJxApTHm+O/kOciz2WiorgGUpa07v2NDHkj3RHctHggbW5Ja+oOpndAkqrO3lWFn4XsHAdvI6uA8/IYm1tXe66nsv58NMvMP2xR9CQ6gp2mfros3l4lgbGdnKsr/azdt1Guo+OUF1vgxHDhtB8z10LYCprfcOZ3ZrWwoxXPfD7grPo4FQHVtZmBcqs6A3m/tOvv2HuW2/oDWZ7qeXjJLlsvTDjaaP4Ffc+5JY8rtv69O6pDnvR70upbnJX70QO4E5C62lyGJ4NZ+CAvsRwKNX7+edb1udFY2OcCUVLXUHLkydPoVOnTqq0SPI9Wr58BSZPmqSUOVaIJj/4kFIkP//sExqXyRZvvDlbv+chQ4Zg+rRpavvtt97ErJkzMXjwIH08r3h5+6BtIYvh6tWryZexAcEbgJ9+XoinnnwC+0lJPX/+vHqBsOWSFdlZL7+Ebl0647nnXygw+Tj7Q7I0adJELcvyc4KUV5am5chb1H7SiJGvX/4k8FupGYF9uFq2aF5U8gJhDg718MiUSYi/Rk012qikeSmSac7PT7/4mnwSrfDqy89jKqXTvjw1xWLZiv+Bm60Ky/nAi0rZ44nlx95/H3bTqPlak0c4VfT8op354gxMmTxBjeDvdyL/+LmsAOLbskWzwsWq7QsXA9W10/wvtURcQR4gaygPltqxfXv8/OtiGpQ1Rb1UWJEtLBu3bCff2Xp6i8Vxmq1g27btygewcNritlu418Gs2e1U9HPTWqn16c+1VttxsWmwtbPER192wTfze8LHOwp/LS14HGdO0gdOu3rqRWO4j//9fh4Lfz6Lx55qhcXLBqBLj3qwrq77xrt8MREDxmxGm3Z2ZA3ugVMnr2EZvZBuVHbu3qNeGBPHjcGwIYPULAX8jDBndk/gwWf5pf3cM0/QCz8Ya9ZtULvkmRJYaeKZEh6mj7dWdN8xe34RaMJWwB9/XKD4Gk69pcUXteT76hqNjabNWcvHEE8vK237NL0Ez9CHQEM6xt70AvE/f0F9MHBZu/d54iAdz0BSRLrRvK+seNSqWZPOBWqmiSWkjDg5OmDsqBGqot60Lb/pbejgAfRsuqnzfmD0SIwaMYzOW/dBwyxGDh+qLISsZBoKK6Z8fP7ki3fPoAEq/45de1USfgn+QMonN/WNJsXS2ro6/lq9Tp998bI/lR/fGFbMyc/3Cp2rs3PBjyR94luwcrPqFFYcf6TntGvnTpj9+iwMoZYFVhBZ+MNR48xj3m3ask0NsszxzPqtuR+CZ9RgRYLnNv5hwS96EpyP6zGWQaSc8/r4cQU/iHfs3Knuvxo1Sp7HWCvUnBRGfrbbtbdHn6b2eH1uB7XdtoO9lgTbNofg3QW+OHc2Dq9Q2tFjG8HCqhpOHo9BRFSq/rk+4R1NY+7l3y8fzfYGK52z3vTA6HGNMOWFfYgzwgVGv+NyrPDzyB/Yy+lD0NraEk9Nf0QplHxPF1cn84dbaXUn91ZmQw/LkWNeSKX6YPiwe9R2ceWqyLyfoup6fvaDgsknnj4EWEJCQ+nZvqx8hHn7R/q45PrmwYkPYABZPH+i+kY7Bo4vT33D+TQ5dSIOnTvlX2ctvKKX3NLA5xkZFa2K5rr0D3qndmive6cYw6+49+F+z4NKh+KC2U94Pw0uXp0UexaexeY3+uAdRD3J+VnZTO9CH3r/GUpZnxct722xRB46fBhs2Tty9BgCSXl4mCyNr7/2qjqmFStWkoUwGx+8/x45mJtT5d4UP5BVkv3hGjZ0URYN9n1k6de3r14hUAH0wxfl9OlTeGv261qQ6gTC1s8lvy/G+g0bVTN4F1IUWWxpGseLFy+q9Z9/WqCsl05OzspCxUqQZi09R1Yrtm6WpRMKT8TOCvN3332PaY8/pr7U1I5u8Icnet90ersqhacvWr9xM1lOp13Hoqjd1KCJ4XkEfLbmNG3cuEASHmiUmzNbkDLHA6w2MmjW5DysAPLo/J4HD6Nl82ZUuU9Xg6/yA8zzcY69fyTYOsl+lkvpwcgkawtLh3YeyKZm8MCLQcilPzv6MAgj65Y2exTf8FeuhGAM5S9K/P1JwSRLhKGwguFFHXnefuMVZdVo26a1UnJOnT4LZ7LSavIzNY85N3BCf7LacgedT2hgWE3YUj1nztvo3690K4WWx76uFb3QLHAxMQX9BjmjVdt865GDY3VlebwUmIDQkBQ0a14HF8kP0lB8vWPQqcv1ldXpk3H0FVkLrKTWqmOBZq3yOxB98JY3Hh3WBNNm6JTVqdOak1X7MGa+3d6w6DKt8wvmr7/XYvLEcejWVfcs/E1KTvOmunti4aLFaO/RBhPHj1Xl3jd8GH5ZtATTHp1KlftVFcbThLHFsD4p5lxJ8TXRrEqsBDDbmqTIsaXfGLl89ap6vmrmvfQv0z3BdQB3tOJ7jBWKLh3bKysh32N7qdLkJZ/LgcNH0btHN3QlCzjLfrpHtfuAfRmdyJLJChsL1z2b6cNLE1ZI/OjeqEMvR1YmDYVdFTiMraBs/TcUttrwC/mJx6aoY2RF+yo9Byzs38j39aMPT1IzWbi6NMA3Py5UH2AcHhYRgScenaLmt3Ws74Af6CVZlqZ3w+OoiPWbVaewIsDWba5H+Xpo9wcfM1si+brOePFVNSMHTwP3xOOPqNNh6xZb73hOYW694Hz79h9U08BxOfxhwfcWKzBd6aOhGX28FpYB/fujXbt2aGlk6xFbHfl5TkzMRK8+jgWebS6bLhsO+EbioUFu+OJHnbWnzyAntduz9Px26pTv6nCKOtG166BzzfHzisavGy5g778j0CivubTP7wE4QC4xI8e7qfw344efR5YJD4xRlkJe15SV4urktm3z66bi6k5W9K6xEYJkNVnTuaVKc4sqrtzS6vpgeteyO5TWoS8oKFhZqXl6QPaT5ekJP3hntr5T62aalo9bDXjfLOWpb1TGvB/PoxF4daZOkTMMr+h17vTFltywsDCyCjtg09Zt6l7uQ240LKXx4zRFvQ9jafIXng7RLe+dzRZPFn5u2N2DPyS49Y8/uFi4xY5bB7S6n8PK+rxwHpZbrkSyY24EVaBffvG56lHNzdZcqWsWr23btyvFsmevProjpF/+8jE0uwaQ9bB3nz5FKk1887E0bZqvdAQGBlJTa331f+rUKaU0XKUXFgu/GI4dO6Z8HrXm77S0VBVnODo9N2V3zlM8VaQRP8foK+2xx/kruhYpwt8ZkcO4JM5OTuCJ4PllxAqkAzVR8Je+scLWX8MbTsvHCkHf3j1UkzRP56QphVr8ULJW3TN4IE7S3JoL6KX3Lynkjz/yMLQJ4rUbNITGzmLhCeD54eb5QXlqTLa08EuXfe+cKU6TMOr9zsfTxM1NCyqw5JfN4EEDCoT50PVgYeWWhS0ZLPzlxUoHl8eV6CH6UOGm9T30smra2E0dk0pIPz179lD/2raxS+4gw9KkRb6ix9t//xGIpfRyaOJWk3xGzbFxz1U8P12n+HE8ywGvSIyZqDtmXYju97GnW+KVFw7DvedqTOrfCK/O6QAnl+pIoWayrX5hAJ3u+l1X9FlcbHVfmPqAMq5cpQ4i/MHQrWsXfc7MzAylMPHzyAoc/z/93Mv6eK3XazBdD/4Q4PuFha1YLIYzJ7DiOH3a4yrc2J8rV0MLNOlepmPkZmAWtrSzsM8iC1sqWFih4OvMyghfZ014m5vFUlPTVNMbN799Mi//GSz8McgfQSVZAmOp3urUoeBLhvfb1M1N3W+8X+4c40gKNQuPIcdN1txRRxO+93mEAT/6sGTFiJ8PFrZWsjRyNd5/U2WowJ+bVaf06NaVLEhHMZs65HFrBrca8Jh7bEXi+2/y+HHk7mGHVf+sVdPMacrIEXI34qneXqAOfJqwMmo4Q5rWyYndkIqSsWPHFBVcatgxsiK+MbTgteZMEWHJiMvKxFMvuF9Xhp9vDCZNyX/nHD0ahedf0s2HfGAvPb8kY8fvKJDP0sq0wHZFb7BixgrLoAH9CxRdUp1sTN3JfuvsE8lzLEdTJ9FRI+5V5ZdUrnYAxdX1bGBwa5R/HQPpPd4s74PWm1wXWD745AutGLXkZ0iT8tQ3Wl72gQ2heqKFe8H6XIuv6KWLi7NqeWhO7nibt+wgF4wZ6r1oDD8+lqLeh3yt+fnQWn3YTYavPc8qyJ1W+X3I7gvsqqBJYZ2hvM/LLVcitWbhYdQez4pjrVo2GDtuPN5843UCUJeGwPHH8j+WoXfvXtq5XrdkRVD7oioc6R8QoJQ2Vho1CQg4j+7du6nNI1ShPUlN2YaK6CkaJsjV1VVLThOeH1P+llozGkew1fTVMvo0sh/O2TOn0Nq9LflZnVC+m/qd3MCK9rLjB48neJ/zps6Ka2yR3Aynu8HqXJfliccfxUOTJmDz1h1YueofMvF30N+YnJhfhO3atlEvaLYmsrBSwUonX0sWzdeJfWRYyb0QGIQvP/2QLFKWNH/nIZymL0vDCoMtOIb5VSF5P1pnD/Z/M5SoqCh66brqPyTOUjMnC5ebwyYDkrXrNoCbar2OH1fDtnBzjib8wJ6ga8JNZx4eHlqwUcvzZ69d5z8TSL2tZ35yFIe2jkJD8ncMD0nGHzuCqANNPuPoyNRiKyvuaLNh13AEUNmvPH8Iv/90Fm993BnhocnqmM4eeQA2ZAEtStgSx/6+rKCw5cUYicyz5rNPGgtb3fml7kactaaWH7+dp7cwGJbJ911dgw5QJ0gpYiuC4bBVly5dog+dKDQmazdPo2WM8NezG/kysrCFMZju026ddYohWz/Z51C7xzQrJfsSRud9QOjPhfKxEslf4VHUA5jlFXKl0CycKqDQDyuJ7KtblCQkJCprZ2ElL4r2269XvgtJDH0cdWyvu5dYsR557z3oTJbTwhITe4145Texnj5zVl07Ht5Hk1BSktnfj90L6tXTKaZa3M1Y3qw6ha/Xu2+/Ce6JvXjpcvr4/A0Lvp9H/tG6D6K+1ELAiiNP7/bF19+padf44z2OLCvPP/tkiR/HbDCoU6u2qlcKM4mNjVUtTPxOcSNF31hJIivkudhENG+dfy20vIH+Ccqf2bCVgOPYYuoZGIN3Wuss+vyReTIqQV9GcFASXnvEHS/Nvv5e0Mq+Gdeb/dRbtWxBHyzm2m7Uciu9M4qtk01MVJqS6k7+gOShZlb/u17N+8yKCkuJ5aoU/G4ouq4PpvqCO22y8LPPfrRjRt2ntsPCwsHzTLPBojgpT32jlXXB/5pabVrIKMCBN+O6sNWfP+L/Xb9R1VEebXXnbQy/4t6HbPFv2LCBdkrk5nUIWh+DcKpX+Zp98+Un+vjCK+V9Xricm/spVPhIaZubhbmpVLM88kuPFb5DZFpl4R7Xa9asVU7V/CI4TV875/P8EVUC+mHLoXvrghYedsJmE7G3t7dyJuX1JGr+YjlDzv+8Hx5ah62g7Nd4lhSZjnk2dj/S1Fm5ZCspW9G++uobPPv0U0phUgXQTxKVf5letLwftjAYK9wcx2Jbx9bYLKWms6FmHP7q+G7+z2ri9ebN8r+AS81MCbjzjGGzkpaHHW/53FixYgWQ91G9urUa1mQT+VAkJSUrqwkrgjyuI3fkYQm8GKx3eOfti1RRaL5O8fQC5i9GtiSzf9TKv1YrBba2wXiPaWkZyo+RO+CwFcxQ0tMz1CY3dbJ7AN8TLK2pcuRrxUN68HXjZnaeyJ7vK0sLS5WGX1RDBg9QvprcLNmemtU14Y+ICRMn49vvftCCjF6eOXW9/0xUhO64rckxO+xqCj5621uV17xl/ssoLS1bhQVdSERyUiZ4mCAWdsK/HJRI9xtQlzrLpKVnw5WsmSyNyPG7ASlKa/+8qDrucOed/bvIV9DA34pnTeAPsXffe1/lMeaH/QpZ+GXAXH9ZvERtcwcWtuDxR8Y28inj+4H/uVJnZYqFrQT85cvs2QrNDu+j7htW4Hn59LPPFV+uLI0VVmIT4hOVj/Ka9ZvUteYKl4WtknVpRAFNeLteniLbIM+XkH3suIPM6nWbVDLuROBCrgysXO+mntfauRwjNwjtXDghW1X4vnI1qIS1/fCS98XCzfaa8H7Yf0yzghVWNJ2oqerIMR9yG+F7NldZJpkZizN1FGB2HMedlg57+Vw3/in7k/I15c5gt0JuRp3Cz+UpUpC5xYQVRa4DuPMdC39o8ocjh7O4t26p7jlutmRh95Rdu/eqOofz833KeQyF78MmTQp+XGrxG6hTDT/fu/fs1YKMWmp+iqkp2eq6GWY6d+oa+nd2MAxS65mZuuc4kuqAaPqf94HuHBo3q6Xi+w10ombfYFUvcEDI5WQc9dR9gKsE9HMzrvcF8lNvmmfN0/bDy5LqZGPqTju7OtB84MdQp1hNSipXS1NcXZ9K1nhWkLgu+pOMF1wXNM7zS+5EH2JHjnqrzkBcDtc5bF0zlPLUN9zKw3W11+EoVccmxlP9Q6NnGMrNuC5cv544eRo76P7WOp/yPo3hV9z7MI3ek4mJuvcz+46eJLcuTS9o59FWsWXLMT9L7Ba0n97hhlLe54XLuOWWyLNUqXTrprMK8gFwBX/vsGHYu3cfuJf2I1MfxseffkbOzTqrACucv/6ykJMqYZ9HtlY2L9SJ5Mt5X+EPGoNRk169++KH779TSil34uDONxfJgsK9wrnJk62ZY8eOVc2trHiOGDECHTvpmvZefOEFjBs3VitKLWfPfgNz574HvlnfnfsOHnvs0QLxxW1ozeaab2Vx6coazpYDtsY88vBko7NqvkdaBh7vq0O7ttTh5TnVIYUdb7l3JCuPXP5LLzyrhuy5SJX3GvrqXLV6rcrK8WOpAwJ/5bIE0hev9jWltolzd2rGYhlMjvSHDh/D9GdeUC8Ne3tbZbVSkXk/3MuOH6g35rynQhYvnK+3MHLPvO5dO+N78idjmf3aTLVf/gBo7LYfL856Q4Wzaf6xqVPUuqWlzmLHx8gKMR/vSOoswVZUTXiAepb25IdVVjnhG4v7x7kVyNa1lwOGejiiQ/9/VTg3SXMvbG6S1sTFtSZmjGuBCU/vUUFbVg6FR0d7HKYe329/d1ylr25uhvGj3TCZem+ymJma4KMPOuPrL07irW+Pq7AebnZYsXaIWucfHx8ftc6dzowVR+LauWMHfPLF1ypLXbIW8jXn55GFh+LgIVfWb9yqj//0w7n0vGSqJqymjd307NlKwL0zDUX7KGzatIlhcInr3cgSuGf/AXz57Y+kINqrtA1ddEokWyO0L2uO4Obt1i11jFjxdaGm4T+pSZSFm+RqkmVUO5dBdHz7yMn8ONUDWnx7sqZrwv64fG84FLL4LVn+vwLjTH74+deqzHfemEWWhFCVXVNguWMMi6Zock/stes346vvF6hwtqJOIf9Tlg5krWRFluM4nMUlTxHmdbYs76JOTyxtDY5TBdzEn4quU7i5/0sav5GFn0Hu+Pfsk9PVNlvJmjR2U+v8w/w96Fy5U+SQQQOoJ/Z9WEQjcTz3sq6VhRXOwqMtsBLZt1dPfRmGK+fISMCi1VGGcSWtcyvCgwMb4Z6Juvtee0Y5z2nqFNe+o04JNizDiiYa4Od66sv71TPcr6MD+Bk1t9A9S/2HOmPf7lB0vWedysb1wmfv6d41HHAzrjcrC1dDwsgPzk3t0/CnpDrZmLqzTm3dhzHXy4ZDspVUrrb/4up67tjHvYu5M4j2XGuGDvbf44ksXn/7XVUM30sPkX++oZSnvvnfkvOYO1+n8HNZfH0+fqkjHn2mlSr6ZlwXLriBM7nZsC8vvbO0c+RwY/gV9z7sRYx27tqDp59/GS3yjEra88UuP9yh5huqb7hZm4WvXd/e+c9OeZ8XVRjdbHekxMXF5fI/WQhu6vHRMC+5bo2b5pIFLJe+nHPpS6hC90dNpqr84OBg/bnwOZFVpFz/JfEoqVx6IEo9L85PvoW5ycnXM+D8MbGx6r+kYyhqJ6pcylvWfEWVVTgsPj4hl77OCgfftu2Y6DS6rqWzLnyAZJnMDQtJIkaFY/K3yScrNzGh4Lnydbl3+Ijc+0aOVvdwfmrj1hISEnLJolZsYvK9zU1KTtbHU1N27iPTn8mlj7lczks+h/q4ilihjmJUdnq5iiJrYMnnEh1T5L1drp0ZmYmsnFSvxBd5Xbl+o6bQ60qiCQ1UnbF5y9br4ooL4GfrTqxT+N4iNwW6LlnFHXqJ4dfi41W9fDPqjhJ3XI5ImnCgxGefhhDKjQxLuS5NRV9vo+v6m1An30hdz+9erleKE65ryC1C3efFpanI8Mp2Xfj55zq5OOF4fhZpBJzikpQr3IRzKW2yHD90MCXmYivQnS48NtLPC3/Fxg06C1JFHy890HjxpZlqoPKPPvxAWVu5yUazrJV1fzxMDvfgKkqW0pccD61TlNSn5rUvPn6/qCgJq8QEuPPWxEmTsWP7NjQro1tDeU571559NMLBFnz39WflyS55jCDw8COPqWGMPv30YyNS65JInWI0qjsuYXmut9T1N/8yynUxjnG5lUjWPT///HPlh1jUrvrS8Dvjx48vKuqOCuOmbLJmYdCggbfsuLhTBw9EXJQonZ5aXU3oryhhn7/CjtJaOh4jMY16mRUl3GymOUAXFS9hQsAYAjxMEvsa9+rR3ZjkkuYWEZA65RaBvkN2I3X9HXIhCh1GVbwu5VYimd25c+fw008/FcIINe7R7NmzjR4f7roCJEAICAEhIASEgBAQAkLgjiag8/wt5yG2atWKppPqf11u7rBi7ADD12WWACEgBISAEBACQkAICIE7nkC1Gz3CkSNHqp7OPHwOS/fu3Wng7g43VCyPeRRJYxs1p1lRDMdqLKnQtYczseZYFkITdUPAFE7rbGOKcV2rYWwP88JRsi0EhIAQEAJCQAgIASFQRgI3ZInkffEYgGPGjFG75RktRo0aZdQhbKN5RJ+aso8Gev4Hr804WCDPGRrP6JNPP8XoMWPV8AcFIovYYAVy/u6MYhVIzsLKJafhtCJCQAgIASEgBISAEBACN0bghpVI3j0P5N2zZ0817qI2iHhph8WDMw8b4QIeF69ZoZHihw+/F99/9x0uX76in86upPLYAlmUONY0xa/T8sfp4zTFpS0qv4QJASEgBISAEBACQkAIFE3ghpuztWLZAqlNnq6FlbR8+MmWyMrMwUsfHS0wNZyWJ5zmU2YxHMxUiyu8LK4Ju54NzUaRXLB5u7i0hcuUbSEgBISAEBACQkAICIHiCVSYElkWBVI7nOCLiWrVcGo4LY7n2O7Zo4d+Rgct3Njlxw9YwcbaBIcDirZSGluOpBMCQkAICAEhIASEgBC4nkCFNGdfX6xxIefPXrtuajgtpxVNTXia5rzmOa15ntqyil9wNtwcTNHA7raeYlkPW9ILASEgBISAEBACQqBSELitGtZZmtC+e5u6NB/t9QNr8xy0NIUPXnp5JkLz5qUtC9FV3pmwqJYLn4u6uSLLklfSCgEhIASEgBAQAkJACJRMoMKas0veTdGxx72j0a1HvesiearAWa+8hnlffoEHHhh3XbwxAbZWJjCvZoIDokQag0vSCAEhIASEgBAQAkKgTARuiyUyMjwFoVeSsedcJOzrWiHsagqyc/Kn8D59+jQiIiLUPNNlOhuDxL2aVkNaRi7SsvLLNYiWVSEgBISAEBACQkAICIEbIHDLLZHcI7vTwHX6Q359njdA/8EnJgF5zdqnaH5e7lTDY1AaIzyQuNbrukcjM8ydaIlqZiaquM2vVcfyfZlYeVQ3PiSnFRECQkAICAEhIASEgBC4MQK3XImsZm6Kq2cfLPKoc3JyEBUVjZV//oVxY0cXmaaoQJ6JhgcSZzl8KRsjvkwpKpkK47QiQkAICAEhIASEgBAQAjdG4I4yy/244CcMHXYvXBu6YNKkiUafGU9l+PwgC5RkZeQ4TiPTHhqNVRIKASEgBISAEBACQqBYAia5JMXGSoQQEAJCQAgIASEgBISAECiCwB1liSzi+CRICAgBISAEhIAQEAJC4A4kIErkHXhR5JCEgBAQAkJACAgBIXCnE6i0SmRmWhYCd11AmF/Ync7YqOPzD7iA8Igoo9JqiXg8zXMB5+Hl44esrILTO4ZHRCL40mUtaYUuE5OS4et3skLLlMKEgBAQAkJACAiBykWg0iqRKdHJ+GfqChz6xrNyES/maLfu2A0fX79iYq8PzsjIxCfzvsO6jVtx5Jg3MjJ1QxhpKY94+WDj1p3aZoUuQ0PDsG7ztgotUwoTAkJACAgBISAEKhcBGe+mcl0v/dGeOReg1t+Y9YI+zHBlQJ9eSE1LNwySdSEgBISAEBACQkAIVBiBSqVERvlHYdebW5EckQyPqR0KQMilGW98VxzHyT98kRqTApferuj31kDYONogaN9FHPvxMJrc0wyBWwOQFJaEnq/1gfvYtvoytmzdhnXr1mHKQw+hb98++vCSVnxPnMLpM/6YMvkBleyYjy8uBAbhwQlj1fbPi5aiaRM3SnMOmdTcPKBfb3TtpDvulJQU/Pn3WoRHRqF+PfvrLIlsldy7/xApgmlwdKiLiePGwMamJmLjrmHZir+QQuE8rua38xeqfT3x+FTUrFFdNYmvWqMbzL2hizPGjhqhP4X1edbDsLAIxF67hnZtWuPeewbDzExnkC5un1zAMW9f7PnPE9yZn4dgEhECQkAICAEhIASqNoFK1Zy947UtuHTkIrLSs7Dnw4LNqb7LfbD9jQ1Ij0+DQ3tHnPrnOFaNW4Gc7BwkhCQgyPM8dr27RSmQ0cER2PDcaqQnpOmv/pUrV7Bt23ZERkbqw0pbibsWj5CwfJ/MuLg4hIaG67NFxcTgMDU1d+/aWSleW7bvQjYdD8sWar6OoIHV7xnUH2bVzJGSmqrPd9Y/ABu27ECzpo0xavhQJCQmY836TSrepmYNjBoxDC0oztzcXK3ztrWVpYqvU6cWhg0eoBTOEINj4cgI8pM8Tr6MjVxd0LdnN3gd98NlOm+WkvbJiuzm7Tvh0sAZ/Xr3xIWLQSqP/AgBISAEhIAQEAJVl0ClUSK5I80VryDYNayHJ4/OwL3z7i9w1bx+PKK27/1+pLJAuvVsClYWI89E6NO1uLcNph98Bj2e76fCQo+H6uO6dumCOXPehru7uz6sIlbatXFHz+5dcD8pemzFu3L1qio28GKwskp269wRUyePL7Cr/zwPqykfXV1clLWxRbOmuHTlKtIzMpTiyNZNBwcHmJmaKksnb5uZmakyrCwt0bJFM9jZ1ilQprZR28aGrI+D0KdXD1S3tkbAhYsqqqR9cqcfExMTsrCOU+fC5yQiBISAEBACQkAIVG0ClaY5O5qaslka9GwIU2p+dWzvrL9y3JQde0UXv3Ls7/pwXkkMT9JvO3dpoNbreziqZbhvKBr3b6LWO3bsAP6vaHFtqNuntbWVKjo5JVUpg2zda+DspMKqVasGVv40iU9IUAond5jRpH69ekiiXtGWdsbNJ67lK7x0dKyvD6pRvTq4WZ2lpH0GkuWxZo0apEjqsjZ0cYLvyVO6DfkVAkJACAgBISAEqiSBSqNE1mlYW12gaxfj1JKbqDUxMTVBDfIXTE5MwsQ/p8LSJk8ho7l4bJvYIWCLvy5vUF7eq/Fq27aJvVYENUOHqv+GDV1Rv76DPrykFfNqZsiiYXY0iYqO1Vb1S7bgFRZLCwuw4hgTq0ufQ0owWxk1sSYLIcvT0x/RgipsaVrE8XDhJe3TyckRZ8kaqUl0zPXnqcXJUggIASEgBISAEKgaBCpNc7a1XXXUdauvmrR3zdmOHa/ofAS1y9R6goda9V54FDHnYxDidRVbXthAVst8Jc53xTHsmL0NBz7fq9I26JrfQWTjps2YMHEyPD09tSJLXTZp3BiZNLTOpctXEBYegaAyjMvo6tIAx31PIj4+AZ6HjijLo7ZDD+rwEkv+lSdOnVE+lEnJKTh0xEuLvinLkvbp3rIFHUe2Go+SO/acOHX2phyDFCoEhIAQEAJCQAhUHgKVxhLJSHvP7o91T6+C1+JDaD7UHYnb48FWSJY+r/dDCvXKPrPOD4F7dZZHVjpNq+XryY37NIfP0sMqffuHuqie22qDfjSLobbUwktaOlHTsCP5Ji6h3tKcz97WtoBFsXBew7IH9e+D35f/D98u+AWm5NvIlklN+vXugQjqtb12w2b1z+F17eyUP6KWJl811kJ0y8XLVuJKSL6v5/ufzlN+lG+9+lLBhLRleDwl7bNOndpo2bwZNm3bocqoWb3GdWVJgBAQAkJACAgBIVC1CJhQZw9q9K08wh1sslIzYW2ra/ItfORZFJ8clQSr2lawrKXzQ/Rb6Yutr67D8K/GoPUYd3Ca4vIXLs+Y7fiERDW8jta5xZg8nIabseNoqB1bUtJYkSwsWVnZqsm7FnWG0XwqC6ep6O2S9plC/pw5dLvwUEIiQkAICAEhIASEQNUmkG/+qiQczK2qgf+Lk2oUV7th0T2TOY+5tbn6Ly5/ecJr17IpTzZSHMl6aWdbbN5q5HNZ36FesfE3I6KkfVavXrTifjOOQ8oUAkJACAgBISAE7mwC15u/7uzjLdfRObZzRP/ZQ6hHt65XdrkKkUxCQAgIASEgBISAEBACegKVrjlbf+SyIgSEgBAQAkJACAgBIXDbCFQJS+Rtoys7FgJCQAgIASEgBITAXUpAlMi79MLKaQkBISAEhIAQEAJC4GYSECXyZtKVsoWAEBACQkAICAEhcJcSECXyLr2wclpCQAgIASEgBISAELiZBESJNJLuipFL8bnz+8ikMSpvlfCc4OEnw3BxT6D6v1X7lf0IASEgBISAEBACQqA0AsUPuFhazioWzwOcl0UOzz+IfZ/oZnixsLCEU8cG6PVaP7j2amR0MQe+8cSBr3br078R+q5+vbwrl4MS8deyC3jt3Y7lLULyCQEhIASEgBAQAkIAokQaeROMWTIe2ZnZRg9UnpOVo0pu1L2JWl46chHxL8TjqWPP6adqLG3Xp1f6qSTT9syAdR3d7Dul5SktPjoqDcv+CRQlsjRQEi8EhIAQEAJCQAiUSKBKKJH7Pt2DiONhGDH/ftR0qIkrRy7j0FeecJ/ogbbjPUoEdG79GZxY7qtPM27ZRPCsOCzc3OyzxBuBWwMQfTYSds3s0e+dQXDu1ECfvvOzPWie7+b464HlCD4UiIjT4XD0cEJmSgY85+3Hxa3n1fzezUe1QvcXeqnZeE79cxJnVp3EtbAYVc6ed3bA1MIM45dP0pf79TffIiAgAHPfmQNnZ2d9eHErGek5eH7afkRFpiEuKxNPTdmnkj7+dEv07KcbhP3g3nAc2BuGlm3qYNniAGRnAZ981RWt29nhzecP4/EZrdDSXTcb0KynDmDGrLZo1qo2sonD/xafx9rVQUij/YwZ0wiPP9cKZmbiLVHc9ZBwISAEhIAQEAKVnUCVeMtXt6+OIM/zuHwwWF2vgI3+aruOa+1Sr5+puRnMa1qo9FyG4VTj/pvOYeecTcghC2WHaV1gZlkNMed1ip9WcHpCGimOEYg6FaGC6rjqpjnc9OJGHP3ZEzWdasKiliUOfLMH/32ka7quRuXwPjXhdYsa+dsc7nPcF9u2bUdqapqWrMSluYUpXnmrHaY+3kylmzW7Hfi/dVs7fb7IiBR899c5rFx6Hk880xozXmqNdFIKWfYcDENcTP6+Vu2/jISEDBW37Odz+H7BaZVn1useWLb8PPZtD1Vx8iMEhIAQEAJCQAjcnQSqhCWy2T3Nsfu9rQjafRHuY9riwmZ/sJ+ic2eXUq9qi+Etwf9LB19D+NmQAulTr6Wqbet6NdFkcFP0fLEXcgukADa9uEYfct9342BV2wpJkUnw33wSNWxqYsjnw5GTnYPFAxfAa/EhDPrgHrQa1Vr9f+N2QeUdu3i8vgxt5aHJkzBwQH/YlTD3tpaWlyYmIAujLZKTs2BbzRyt2hY/Z/dXC3qjgWsNw+wlrn/902mMHuIKO3tL5OTmYmA/J6xaeRGDhpfOt8SCJVIICAEhIASEgBC4YwlUCSXStrEd7BrWQwA1Tfee1Vc1E7d/qAtMb7C5tSUpl76/euHcxhPqv65bfdy3cLRqrtaueKuR7RDuHaL2Wc3STAUnhCaoZXJiEhb1m68lVcs0Ukyt7aoXCCtqY8SI4UUF33BYKzubMimQyUmZqnk8MjIVa1cF6ffvWgYlVJ9JVoSAEBACQkAICIFKQ6BKKJF8NdwntSMfxF3gXtMsLe5rpZY38lO9bg08tvdJhB0PJSXyLI4tPICD5Gs5bskEfbHu49ui7xv98Gvf+dj99nY0H94K1W2tVXwdJ3uM+nWsPi2bMS1sjOtA4+/vj8TERLi3aYPq1rry8gsqfs0EJkrpKy6FQ92i929ZzRQpZMVkiY/TNWPzunV13S00fKQLxj7YlINEhIAQEAJCQAgIgSpAoEr4RPJ1bDasubqcfiu91NK1ZyO1LO3Hd7kPvBd7IfFqvEp6fKm32k6NTYE/KY6e8/5DRkqmvjNNSkTydUXaNbWnDjwdkRgTjzNrT6GWS22w1ZI7zpxdcxpxwbEI3HkBnp/vg5m5cZfkw48/xYSJkxEWGnbd/koKaNqilor2OhipOsSUlNYwrl9vJ+zeFgq2PK5eGaiPMjU1wfQRTfHXikBc8Ncxuno5CVy+iBAQAkJACAgBIXD3Eqgylsj67g6wsa+tFLnWo9rpe1iXdmm3vb6hQJI9H2xT2669G6mheg5+uxf4VpfEoZkTBn4wpEB6Mvwp6f58L5z65zj2f7gbbR5oizHLJmDTjHXKDxKLdWlY0TRWWHljMWFnxzJIrToWePPxNhgzfZfKtfCjnrjvATe1XlJZYyc3xswXDmJJ10A8OFCngLNVk2XWnA5455UjGDBms9rmn89f6YwuvRz027IiBISAEBACQkAI3F0ETKi3MTWi3vmSS51PynugJfk+cqeW4kQpaqUoaZw/OSqZhuYxh1U5xnLk3ttpCengpnHzvKGDijue2x2eTeeaGJ+FOnYFe4prx5WakkVN3emwr2cN7g0uIgSEgBAQAkJACNy9BCqNErl08KLrekdrl8XJ3QVhZ65qmwWW3KHmySMzCoRpGxmJ6fim5Wfa5nXLsb8/iBbDWlwXLgFCQAgIASEgBISAEKjqBCqNEhnqG4qMxPwOHYYXjo2pxTXFWtQw1/srGubhdbYiXj54uXCwftuBmsB5jEkRISAEhIAQEAJCQAgIgYIEKo0SWfCwZUsICAEhIASEgBAQAkLgdhIQx7XbSV/2LQSEgBAQAkJACAiBSkpAlMhKeuHksIWAEBACQkAICAEhcDsJiBJ5O+nLvoWAEBACQkAICAEhUEkJiBJZSS+cHLYQEAJCQAgIASEgBG4ngSoz2PiNQl4xcimu+gRjVuBbMLc2L1NxadfSYGljARODubpDjl2l8SHT0HhAkzLN4R3iRfni09T+LWtZwqVrQ/2xxAbG0Ow3cfrtspatz3iTVnjaxFPHY9SsPJ271yt1L2f8YhEemqLSte9Sl8afLHpKxlILkgRCQAgIASEgBIRAhRMQJdJIpFmpmUamzE/m9etRHF/khdgrUSqww5SuGPblCLW+Z+5OhPhdwqwLs2FavejBu/NLyl/b+94upcxyCM+Q8/h/T+kjz60/i/1f6mai4cCXzrxRrgHQ9QVW4MrZk3G4Z+JW3NveCe5tbWGMEhl8MRF+3tH4cXUA/l44ED3rOVbgEUlRQkAICAEhIASEwI0QECXSSHpjloxHdma20VbIuKBY7Hp3C3iw876vD0bs+RgE775o5N6KT8bHkZmUgYW9vr8uUefpXdB2Unv8+9jfCDt15br42xmwZ9tVNcf2+191M/owRoxtBP7/d/Nlo/NIQiEgBISAEBACQuDWEKgSSuS+T/cg4ngYRsy/HzUdauLKkcs49JUn3Cd6oO14jxJJn1t/BieW++rTjFs2UT/vdm5OLnyWeCNwawCiz0bCrpk9+r0zSA1ufmHHeZWn20s90f4h3ZzYKTG6pll9YbTC+U8t90OTe5uj98w+sLCxBDdL7/t4DyL9wpGdkQXXfo3Rk+LsqfwaND1idq2im3UtKZz/qxUzfWImWVM9v/wPFzb5w6KmBdpO6YBOj3XGuQ1ncHKFH8YunVBASd79/k7kZuZg8EdD1SF//c23CAgIwNx35sDZ2dnwNIpdP+oZgUU/nYPf2VhYVjNF2JR9cHGpjrmfd0VWVg6+fO84DhyMRFp6Njp1sMest9vB0blGseVpEdnEfsWv/tixNQRhkano2N4OH3/TAxaWOjffg3vDsWjBWVwOSUbvng4DX6hqAABAAElEQVR4heb35nnDRYSAEBACQkAICIGKIVAlOtbwrDNBnudpdppgRS1go7/aruNau1SKpuZmMCeFi/Pzv+FU4/6bzmHnnE3IIQtlh2ldYGZZDTFkcWRx6qhTsra+uh673tmBa+SrWNTsN8e+O4j0xDQc/dkTQft0lsro89GIPh2J5ve3QotRrXF6rS/+feTvUo+1tATbXt2s9pNDyltsYLQ69uPLvMlH0Uyd27VLcWoWn5ysbFWU3+9eyEjOnyXI57gvtm3bjtRUnU9mafvj+Bbutpg1ux26tLVH316Oav3hJ1qorDm0G0tSeD/+oiu++7EnskhhfeLh/4wpFrs3X8GX80/h5Tfb4efFfdGhU139tfHzisbEZ/dg4BAnfPZlN4RcTcGCr04ZVa4kEgJCQAgIASEgBIwjUCWUyGb3NFc0gvKaky9sJkuchSWcO7uUSqnF8JYYu3g8HFs3uC5t6rVUFWZdryaaDG6K8Ssmoc34tiqsAZU98J1hat3rt4Oq+dlr0bHrypiw5mGMWDBGhV89clUtG/dvghE/3g/75vao3agOatjURHRwBDLTsq7Lb2wAd+5hZZTLevLIs5i2/xmV9dgPh2HfQtfJJS4oDmumrsKXrh8hKSIRGRnpcPDI90N8aPIkzJnzNuzsbI3dLerYWaAV+UA6OFqjPv3zepPmOuWdrYaz5rRH42a1kJqSjY5d7OEbdg2ZGTmllp+amo3qpPzWc7BCs5a1MYUUU0srM5Xvf8suoINTHbQkBTaLprYcdI8zVvx7EWlpOuW41MIlgRAQAkJACAgBIVAqgSrRnG3b2E75JgZQ03TvWX1xLSyGmpi7lKlXdFEkW5KC6furF85tPKH+67rVx30LR8PRwwkmpibo9mwPtKcm49NrTmHHW5uwa+5mtB7dGjVI6dTEzs0WcSa6rcxUndXv2MIj2P+FroMMK7uszLGkU29uc6v8vLpcxv0mhieohA16N4JpNTPUblhHKdLMoo5rHRUXExCFK3nW2nNkrWWp1yq/F/WIEcNVWEX9sFL35IN74XshDoO7O6rmbS47nZq2zS1K/r4ZdK8L9u8JQ68RG9HA2grPP9OaFMmWMCXuQRcTkE3W1rWrgvSHOnKgC5LiM2BlZa0PkxUhIASEgBAQAkKg/ASqhBLJeNwntYPnvF04PP+gotXivlblp5aXszr5Jz6290mEHQ8lJfIsji08gIPkazluyQRcu3wNNk61lI9ip8e6IIL8G0/85Y1Q8s1sPlRnGVXF5CmQ+oPJzdUrkI9seQpO7Rwxv9XXSE5M0icxJd9ClmuXY/Vhhivm1XVDEKXEJut7Z1vV0SlPseeiVVJWSFk5ZcukmYWZsrSe+euUCms6qBX8fvNS6exb1NUX7e/vj8TERLi3aYPq1jeujG1aHYyASwnw8R6nlMYdGy/j3yMh+mZpbcfsS5leyIpY08YcXy7ohXcTu2L31quYMfcwOnStB4+O9nBwsFb/n37fQytClkJACAgBISAEhEAFEyjZ3FPBO7udxTUbplPc/FbqlCPXno2MOhzf5T7wXuyFxKvxKv3xpd5qOzU2Bf6kOHrO+w8ZKZmqMw0nSIlIVunO/nsai3osUB1ZDnztiXNrdT55zh2dVHyxPyYmcOnkpqJjyDfy0A8HCyiQHMFWTu71zUrg1lc3qeNJCE1UefjHrrlO8dvx2hZ4kTIY6hMCm/o14dS2oWoW5zzrnlij0ree2E4t69NxcZN54z7N4UZjV/I6W0G5I48mH378KSZMnIyw0DAt6IaWtnaWKn8aNdOHkd/ist90nZEKFzp0UANsXX8F8XEZyEjXNXWrMSSp0wwrk116OKgsqTQOJcuw+xpizaGr8KIOO9nUnJ2YkIHdW3SuAiqB/AgBISAEhIAQEAI3TKDKWCLruzvAxr42EmPi0XpUu2J7MBcmuu31DQWC9nywTW27UrMwK3MHv90LfKtLwuM2DvxgiNqoR/vLTErHgW/26CLpd+jnowo0ZasIUhoLS6/X+2L7zERsenGNOuY6TvaqCd4w6X0LRmP/J3ugKcUO7vVQy9lGFdWVmtG5s87JVT4IPhSohhhy7tQAoxaOwZopq/R5mg1pjT6v9VV5NN9Hl16ucO6i8/906VFQ0eamYhYTwwNRIaX/FJWlzyBndGxjj9bdV6sCnrq/Gfaci7yusIemN8fXH/uhTa/VmH5fU7w/rxtO0kDkr3x6DLbVdFbX58e3RLc+9VXee2lYoDcDEzBmus4lgAMn9nXFoOGl+8Bet3MJEAJCQAgIASEgBIokYEK9jXOLjLnDAnPJolTeAzU1mCmm8GnlULnFiVKaitJ+DDJw/uSoZPJVNNc3HWvRPAQQWyyzqKNITYfqyhdRizNmyZ1b2H+SldWKlOToZFSjJmweDuhOELYwWlnT8eR1jDH2mNin8lpMGupRhx2zIq4x9/aOikhDbVsLVK9RZb6XjMUn6YSAEBACQkAI3BCBSqNELh28COFnQ4o8WSd3F4SdKbq5kpt9nzwyo8h8GYnp+KblZ0XGceDY3x9Ei2G64WiKTSQRQkAICAEhIASEgBCoggQqjRIZ6huKjMT8MQsNrxUbU4trYrWoYa73VzTMw+tsRbx88HLhYP22AzVJFzW2oz6BrAgBISAEhIAQEAJCoIoSqDRKZBW9PnLaQkAICAEhIASEgBC4IwlUmd7ZdyR9OSghIASEgBAQAkJACFRSAqJEVtILJ4ctBISAEBACQkAICIHbSUCUyNtJX/YtBISAEBACQkAICIFKSkDGPblJFy7E6yrS4tNU6Za1LOHSteFN2pMUKwSEgBAQAkJACAiBW09ALJElMD9Hc21/7vw+TWd4RJ9q3VNrVdi14Dh9WFEre9/bhX+mrlD/O17ZUlSSWx7G4yZu+fcSRg7agn7d1t3y/csOhYAQEAJCQAgIgbuHgCiRJVzL+h6OKvbKocu6VDSU0MXt/mo6wNqudUrICYxZMh5PH3yxxDS3OnLBV6fw3gc+cHOtgbjUzFu9e9mfEBACQkAICAEhcBcRuKuas7e/vgVsIWz7YDscm38YWalZGPHTaNRtURe75+7A1QOXkRqTjLo0/mP3l3ujUR83rJ7yF1qOdke7B9vrL2vkmQiwJbHv2wOVwnhpb6CKiw9JUPNVNx/qrmaRiQ2Mwb6P9yDSLxzZGVlw7dcYPWf2gX0zezXndHYJM8JsmbkRiVTexFUPQdtfi/tbocPDncAz3fiuOI6Tf/jS8abApbcr+r01EDaOumkN+WC+/uZbBAQEYO47c+Ds7Kw/9pJWRj7QCM/MbAvP3aHY53399IIl5ZU4ISAEhIAQEAJCQAgYErirLJFXPC8hyPM8Njy3mqb0s1TnmRgSj4zkDJz5+4RSxjwe7YToM5FY9eAfSCEFLfZ8DAJ3nFdpc7KylQIXcTJClWNta42mw1oqxTEhNAERp8JVOldSPlmiz0cj+nQkmpPy12JUa5xe64t/H/lbxZX2c/m/YLUPTpeekKbW4y7qmsh9l/tg+xsbkE4+lQ7tHXHqn+NYNW6FGhxdK9fnuC+2bduO1FSd36UWXtKySfPasLC8qy55SacrcUJACAgBISAEhMBNJHBXWSI1ThNWPIwmA5sC1PycSc22ZpbV8PC26Yg4Ga7msrZrWQ/JXkmIIQXSuZsLwn1CEeYXhmXDf0G/NwYjLSFdFVXbpTYakhXw7IYTpEBGIOx4qApv0NVFLRv3b4IaP9ZAdECUmk2nhk1NRAdHIDMti+bSLj9arx91Ppj3fj+SZsypgQxSJoMPBSqLpaOHk9r3Q5MnYeCA/rCzs1Xb8iMEhIAQEAJCQAgIgVtJoPyazq08yjLuq2HPRrocJiYwr26By4cu4c8HluhLsbDQWSnT41Ph4FEfZ9b5IeToFRUfcozm56bmZJdObqrJukEXncIYdjwEIYd0aRxaO6i03OFm/xe71DqXmZGhUz7ZsmhuVVO/v7KscFN27JUolWXl2N8LZE0MT4Kjhy5oxIjhBeJkQwgIASEgBISAEBACt5LAXalEmpkXbLI99pPOsjf4/eHoPK0Ltr66GSf+8lac6+UphH6/+6DlCA8E7QyAuaU5Wk9sp+LrktWS5cr+S7jqEwy3nk1hZmGmrJyaAvnIlqfg1M4R81t9jeTEJJWef0yr6Y7j2uVYfZi2osWx1TIpIj+PiakJ2KLJ5Uz8cyosbXQKL3IB2yZ2Wnb4+/sjMTER7m3aoLq1tT5cVoSAEBACQkAICAEhcCsIFNS2bsUeb8M+HDvoOp4kkH/kuY1ncW7tKf1R2FOnGxZuhu78ZBdlTWQFrl4bnbXR1MwUTQe0VAokp2vY140XAFk52VrJEkO+kYd+OFhAgeRwVgjtGtZTZW59dRO8F3shITSRo+DcXWfh3Pv+Lnh+sk+FaT+tJ+jMjd4Lj6omdx5zcssLG2BqZqIlwYcff4oJEycjLDRMH1baSlZWDsJDkxETnY64rMy8deN9KksrX+KFgBAQAkJACAiBqkPgrrREFr58bSd5IHh3II79clBFNWjfCCF+l5QiWMuplj65Y3tnpTAG7vVH3VY6CyRHNuzTCBzG4tKtoVryT6/X+2L7zERsenENbOxro46TPa6FxbB+qZf7FozG/k/2wG+llwpzcK+HWs428KDe4EHbzsNn6WFl3VRN2Hn5+rzeT3X64WZ2bb913errLZtckCkpqCwmhjtTIcX/BPrHY/D4rfoEXQavxyD3+li2epA+TFaEgBAQAkJACAgBIWAMAZNcEmMS3u40udk53KJbpLAixVa/0iQlOpl6bVvpmqNLS1yG+KSIRNSoV9OoYzAsNpsG/85KzVDHZBiurWdRU3dyVBKsalsVm0ZLK0shIASEgBAQAkJACNxKApVGiVw6eBHCz1KnlyKkyxO9MPiDe4qIkSAhIASEgBAQAkJACAiBm0Gg0iiRob6hahidoiDUdqkF28b5nU6KSiNhQkAICAEhIASEgBAQAhVHoNIokRV3ylKSEBACQkAICAEhIASEwI0SqBK9s28UkuQXAkJACAgBISAEhIAQKEhAlMiCPGRLCAgBISAEhIAQEAJCwAgCokQaAUmSCAEhIASEgBAQAkJACBQkIEpkQR6yJQSEgBAQAkJACAgBIWAEgSox2HhJHGIDYxAXHKdP0nhAE5oZRnRrPRBZEQJCQAgIASEgBIRAEQSqvBJ5bv1Z7P9ylx7NS2fegFUdK/327VrxORqFX344iwO+kVi/digaN8ufWed2HZPsVwgIASEgBISAEBACGoEqb3LrPL0LnvWaBae2+dMZanBu1/Lg3nDc/+hO2NpaqDmus7OLm6vndh2h7FcICAEhIASEgBCo6gTuCktkDk2JuGbqKljZWmPkj6PVNfVZ4oULmwPQf+4g2DW1x+65O3D1wGWkxiSjrrsDur/cG437N1HTCfJUiNWsikaxZeZGJIYkYOKqhxB5JgJ739uFFve3QoeHOyE3Jxe+K47j5B++VG4KXHq7ot9bA2HjaKO/r7Zs3YZ169ZhykMPoW/fPvrwklaataqFkwfGITsrB3/sCCopqcQJASEgBISAEBACQuC2ELgrLJGaD+Pptb6ID4lXIL1/Ooogz/NKgcxIzsCZv08oJc/j0U6IPhOJVQ/+gaTIpFKhX/4vWJXDCdMT0tR63EWdD6Xvch9sf2MD0uPT4NDeEaf+OY5V41aAlVpNrly5gm3btiMyMlILKnXp4FgdtnaWpaaTBEJACAgBISAEhIAQuF0E7golkuG1HO2uGF45eBkJoYmIvRKFFve2gbm1OazJQvnwtulo0L0hqtetDruW9VTamPMxalneH68fj6is934/Ulkg3Xo2RXRwhLJYamV27dIFc+a8DXd33fFp4bIUAkJACAgBISAEhEBlJlB0G24lPKMmg5qoo7648wJgojuBltTszHL16BX8+cAStc4/FhY6K196fKo+rKwr3JTNiirLyrG/F8ieGJ4ERw9dUMeOHcD/IkJACAgBISAEhIAQuJsI3DVKZI16NeHSyQ2B2/yRm9cPpcnAZupaHftJZzEc/P5wdJ7WBVtf3YwTf3kXuI7m1c3VdkpscoHe2abVdMbazLQsJEXkN3+bmJqghk1NJCcmYeKfU2Fpk9f8TPu2bWKnLzs0NBT837ChK+rXd9CHy4oQEAJCQAgIASEgBCozgbumOZsvQqtxbZCRkY5zG0+gcZ/msKqtG6rHsYOzukYJ5C95buNZnFt76rprZte8rgrb8doWeP3mhVCfELXt3N1FLfe+vwuen+wrkK/1BJ250XvhUXDTeIjXVWx5YQONM5lnCqXUGzdtxoSJk+Hp6Vkgb2kbkeEpiAhNUcmiIlIRHpqsV45LyyvxQkAICAEhIASEgBC42QTuGkskg2o6pBl2ztEhazmmtZ5d20keCN4diGO/HFRhDdo3QojfJWr2zlf2uj7bA+mJaTi5ygfBhwLR9/XBcO7UAB4PtkfQtvPwWXoY7POomrDzsvV5vR9SqFf2mXV+CNzrr8qu61YfmvWSA0zy9qEtVSIjfjoNXKdPNeHpPWo9yG8SzC3uKr1ff46yIgSEgBAQAkJACFQuAia5JJXhkHOpx3NxB8oKGjcvlyYp0clqSB8zC7PSkhaIz87MQVZqhspbICJvI4uaupOjkpTlk4cLEhECQkAICAEhIASEwN1OoNIokUsHL0L4WV0Tc+GL0uWJXhj8wT2Fg2VbCAgBISAEhIAQEAJC4CYRqDRKZKhvKDISM4rEUNulFmwb53dmKTKRBAoBISAEhIAQEAJCQAhUGIFKo0RW2BlLQUJACAgBISAEhIAQEAI3TEB6adwwQilACAgBISAEhIAQEAJVj4AokVXvmssZCwEhIASEgBAQAkLghgmIEnnDCKUAISAEhIAQEAJCQAhUPQJ31TiRJV2+KP8o5GRmqyQO7vWNGhKopPIkTggIASEgBISAEBACVZlAlbFEXrt8DZGnI+C37DiyM3TK5O288Fk09uSWfy9h5KAt6Nctf2Dx23lMsm8hIASEgBAQAkJACBhLoMookc3vaU4z2jQ3lstNT7fgq1N47wMfuLnWQFxq5k3fn+xACAgBISAEhIAQEAIVSaDSKJGZyRlqTuv0hDT9+cdejIHfSl+1nRqXihN/+mL/F/tw4GtP+G/2B880Y4yc+J8fEkIT9Ul9V/ggMTxBbefm5OKSZzAO/3BAlRtI0ydymCbZ2dl45tkZmDnzFS3IqOXIBxph/6HRGDepiVHpJZEQEAJCQAgIASEgBO4kApVGiTSvYYHMpDSEn4rQ87t65AosbSzUdiZZ82q51EG7hzui1f2tEXU2Ehe2B+jTlrQScz4aGcnp+iSRfhHgqQxZgvYH4eKeQDTq1xjNhjXD1SOXEXkm/xhYidy2bTt279HNb60vpJSVJs1rw8Ky0uAv5WwkWggIASEgBISAEKhqBCpVxxrnLg0R5n0VjXo1QlZ6FsKPh6Hb8z3VNavlXAv8zxbJzKQM1Hatg4SQ+Bu+nkG7AuHg4QiLGpbgacbrtqiHq8euon5bR1W2mZkZ3pnzNqqZm9/wvqQAISAEhIAQEAJCQAhUFgKVSol09KgP/3VnkBKTohRES1sr1G5YW7FOikyC92/HYGpmqsJSopNv+BqwoppNFsn0hHSEkvKqSXU7a20VrEROm/a4fltWhIAQEAJCQAgIASFQFQhUKiXSspYV7FrURcSpcMQFx6FBFxeYmJio6xS48wJs3WzR7sEOavvsutOIpx7ZhmJaTdd8nJPFvbPzT53DszN0zdeZKfnzc5tZmKnsju3qw6VrQ8Oi9Os5OTk4fvw4TE3N0LGjbt/6SFkRAkJACAgBISAEhMBdSqDSOeU5d3JG8H9BiD4dCcd2uiZlvjbsG5mdlYOc7BzEX7lGlsPQ6y6ZVW0rsPUyzC+cmsOz9R1k7JrVJT/HKNVEfuXoFX0+VlCdu7ngKoUlhus63rAVNDYwVp8mKysL4ydMwmOPT9OHGbOSRccaHpqMmOh0xGVl5q3ndxoypgxJIwSEgBAQAkJACAiB20Wg0imR9Wig8MzEDNRwtEHN+jZ6bi49XJESlYKds7fB69djcGjjoI8zXHEf2wahXlew+53tCDsRpqJcujgj9kI0he1AokEvbY5sOaIlKaiWOEQ9vre/vgWen+9DYpiu5zbHa5ZQXi+LBPrHo8vg9Zj5yVGVTa0/fbAsRUhaISAEhIAQEAJCQAjcNgIm1Fkkf7ya23YYFbdj9l+0qGlR5hlpeNieLOrhzb3Ai5IsGqCcm7pZoWS/SxEhIASEgBAQAkJACFRlAnedElmVL6acuxAQAkJACAgBISAEbhUBMandKtKyHyEgBISAEBACQkAI3EUERIm8iy6mnIoQEAJCQAgIASEgBG4VAVEibxVp2Y8QEAJCQAgIASEgBO4iAqJE3kUXU05FCAgBISAEhIAQEAK3ioAokbeKtOxHCAgBISAEhIAQEAJ3EQFRIu+iiymnIgSEgBAQAkJACAiBW0Ugf+6/W7XHCtjP5q3bsXrtelXS5x+/j7p17fWlBl4Mwieff6W2pz8+Fb16dNfHVfWV1NRUPP/yawrD0CGDMGnCuAJI5n7wKUJCQtCgQQN8MHd2gbgb3cjOzkZ6RgaqW+fPO56SkkJTRvqiB10jnoO8OLl0+TKSk5Lh7t66uCQSLgSEgBAQAkJACNxiApXSEpmeno6GDRtg/rdfwt7ergCyLJoXO4sUFo7r3rWLiguPiMSjTzyr/qc//bxSMg8dOVYgX3k3WDla8PMixMTkT4VobFkhoWH4dfFSY5PfcDorKyvFpY17K6SlXT/F4ttvzMLEB8YiOTn5hvelFcBzi3//w3w0a94Sbdp44Kmnn0Fiom4KyaioKDw89RFkZmZqyYtc7tixE4t//73IuPIG/rF8Bby9vcubXfIJASEgBISAEKjyBCqlEslXzdTEFNZk1Spu2kGO01u38ibleem5Z/D2m6+ifv16+PnXxYiLu3bDNwAXfcTLG0nlULzi4uJwuIKUWWNOhFkV4FIok6WlJSwsi56x5//tnQV4leX7x7/rTtawZAXb2EgBiQGSBtIIBhIGJhZiIKGiIoJg/UT5q1iIEkqNHN3bgBEbuWDdydL/cz9n79k5Y0lP7vu6dt7nffJ9P+dcF1/u+4kaVRt9u2/ffixcuAhrVq/C4UMHkJSUgi++/KrR7aniyBHD8eb0N5rUpqHKW7ZuxaVLcQ1V43ImwASYABNgAkygDgLNMpxdx7s0mO3gYI9WLV3g7uaKffsPYffefXjogSGy3UfzP0Nor57Yu/8gzp47j3ZBAZj69GSUlpbhtxUrERF5HPoG+ujfLxSDBtwn25AXMT4hQaaXfP2tCNWaIjioLUYMGyrzYmJi8fPvfwgvZY4YsxUmTXhMht6pz/c/+lR65MhrSmFksqEPDkbH9iH44uul6BAShO7dusp88rzOE8/3+PhHYGFujiWinMYJ37UXNjY2ot9H5TtR5UIRIv7l1z9w4uQpGBkbYfhD96v7kZ1dx8dnQgzGxsZi5rvvwMXFpVE9bdy4EQ88cD+Cg9vJ+pMmTsCs2XO0ROEvv/6GP//8U/TZEm+++QZ8vL1l3SNHjuDbpd/JdOfOnTFl8iT1mOQB/u3337Fmzd/Cq1qCoUMfxMQnJ6j/45CTk4Mvv/oae/bsEXkGGDNmFB57dDzWrVuPv//5B7t37UZ6WhrCNm+GpaUlPp3/ibpvTjABJsAEmAATYAINE7gtIvLnn39GXl5enU/Xv39/+Pj41Fl+vQXpGRky5G0rBJhiZ89dEOLxghBcXfDMlCdBcyvJwoXY2LPvAMaPHYVsIUx+++Mv+Pn6wNPDHfcPHoD8vHx8OH8hhgox6uzkCHMh8sjoSPJPPluMwIA2ePjBB7By9Vp8+/0PeGv6qzAQYvSJR8dKsUr9PT5+jGxjb28nr45C7K76e71a/B06EoGEhMtSKCZeTgLNEbxScgUTHhuHTZu3ClH5LT6dN1e2JTFcJkL6E58Yj6TkVPzv+x/F8/peFfaXlZv4ESHmL+4Vouz1115rdMu4hER0qZpWQI1cXVvJ776goEDdx2Yh5N59522sXPkXpk17Dev+WSPLvL198Mq0aVgpBGZMTIy6PiV+/Gk5vv12Kd57byaMDA0xe84ceHl6ol+/viCB+eTESTAU+W+88TpsbWyxa/du2Z7mX3oLkUqh9D59+mCA+K3p6etp9c03TIAJMAEmwASYQMMEbouIHDZsGObNm6eeG6f5mIMGDbppAvKHn36RQ509f0EICxt069pFc2jpfZw04XGZF1LlOTtyNFJ4KHsgtHdPmR8RdQyR4o9EpIuzM8rtHWS+mxBH5OFU7FJcvBSqzz41CTQX0dTUFB99uhDl5eXQ19dHay9P0EIXfbGgxLu1l9JMXvuIsdZtDBNiMUH2uW1HuHwGdXhe1BovPGvB7QLh7OyEGe/ORr4QZbm5ecIzelmI1vtlmN/F2RF2LVpg5+49GP7wQ1pjXMvNuLFj0Ce0N2xtq8V3Q/1kZqTLELpSz7hqYY3mvEsSivfc0wUeHh64t0cv4bnNFKK3BaytreSfs+Ccm5urdCGvn3++WHo46XukeZe9e/eWYpNE5MmTJxElvqOwTRvgKwQ0meIJtbOzE95gO1gI72NL4U319/eT5fzBBJgAE2ACTIAJNI3AbRGRZmZmGDlyJP6vxmIJLy8vDB48uGlv0ITaHu5ucj7kk088KgSE81UtKZRc02LOnhMCsoc621s84/Hokw2KslOnzsDSwkIKSGrsJsLZZOThJE9mfUarzVt7eiB8527h7RyIi5fiMUWEgTWNwuNk5P0kOydC8DQ/kyxWPPOFi5dk2kWITCNDI5m+3o8hQ5r+3dhY20ixrIxdUrWgh0Q1henJWleJaBKLZKdOnUbPntXMZabGB63qJk82eRPXrFmrLnF1VYn4pORkmUceRzYmwASYABNgAkzg5hC4LSKSXiUkJEQIhZ7YXRVmpDzyUN5MI28izYmsy8zNza4qMjQwQKpY3a0Yrag2Ma7epkasVZFG3jBNMzYxRp5YhUyhVfIgpqWly2LySqpNNKY5kbUZzbv833f/J0Woi4vTVaI3PSNTeOms1R468kgWFhbJrkYOHyo9nbX1ez15FFKmldVtAwK0tuqpr09X4Z29KISzYgmJl2XSQghsWlhElpKaKr2DirfRTYj9+kxhOFh4rYcNe/iqqi1sVVs+pYk5j05OTleVU4a+rh4qanxntVbkTCbABJgAE2ACTKBWArd1dfbQoUPh4KAKB1Paza1+8VDrG9zkzLZt/MScyINSBJKHjzyJQYFt1aOSQKSQ8aHDR+UiHJoLSebvpwqjbt66XS52Cdu8DSRInTVEjburypsYdfyEDMmqOxWJjh1CoKuriw1hWzBAhGhrWtgW0a9YEb5J9GsihKmTo6MMfZuZmmHdhk1y5Tk9S0zsWRkWr9n+Wu7nfjAPo0aPRbIQ0o21gQMGYM3atXJBDgnQn8XWOrQARnNV/V9/rpLidNWq1eI34Creo/7fAXF5VCyS+X3FCumBpWdJFOL08OEj8rFoP0laLPO//y1FBs1/FVMIdu7cpfXIISHB8j8w9EzKd6ZVgW+YABNgAkyACTCBegncVhFpIETViBEjxCbSbdG379VCqd4nb0phlbdQU7g0tvlj48bKqq+/NRMffLwAvj7euK9vqFbz4Q/fj63bwzFl6otY/OU3sozC5SOGPYTfV67C1BdfxeGjEXjumclisYeBui154/qG9sLCxV/hyaeew/YdO9VlJE57dO8q77t2Ue13qS4UieSUZEx96TVsFAtrHn1ktCyiuZavv/ICLlyIw8uvz8CEKVPxyYLPa517qtlXY9O6uiqQTeHYu3cvTJkyGQMHDUG74PbCK6uL559/TmtIWuFOZXPf/wAzZrypVVbXzauvvCL/A9J/wEB4enmjZ6/eQjDHyOo0XWL5Tz8IntvRuUtX+Pj64++//9Hq6v777xfCM1GO26173aFzrUZ8wwSYABNgAkyACagJ6AgvTNVMOnXeLU+kinCmo/CkNdZWr/0Ha/7ZIKvTiTVOjipvJmXExJ7Dh5+oTqx58vHxckFKY/utrx5tGWMgVvuaibl8TTHyguXk5MrFKORBa4rRyTvWVlaYKsSnYrTYZuacD7H0q8XSE0mCSVOYKvVyxZzBCrFKmxanKOPSXMJnhaAl6ytC+0+I1d2a9qZYoJOcnCI9qws+fl+z6LrTRWIREc2HpC2JajNaTEMr22mvypo2871ZMnT/yrSXaxaB+s0Ti25oIQ79p6SmUb/0/nWNW7M+3zMBJsAEmAATYAKNI3BHiMjGPap2LUX71uYVq69Mu5c78+70mVgRpt6CqOPRmPve26CV34ppisjaxKNSr65rQ2yovDamdfV3M/OXfve9mEaQhu/E9a+/VqJD+/Y3czjumwkwASbABJgAE2gCgdu2sKYJz1hr1fqETn1ltXZ2h2VS2NjD3R3Dhz6oJSDpMa3EXL8HxIptCgtfizXEpqHyaxnzWtvQHFJacR0evr3BeZLXOga3YwJMgAkwASbABK6NQLP1RF7b63IrJsAEmAATYAJMgAkwgRtB4NrcWTdiZO6DCTABJsAEmAATYAJMoNkSYBHZbL86fnAmwASYABNgAkyACdw+Aiwibx97HpkJMAEmwASYABNgAs2WAIvIZvvV8YMzASbABJgAE2ACTOD2EWi2q7NvHzIe+UYR2L0tCQX5ZbK7br2cYW1reKO65n6YABNgAkyACTCBm0yAPZE3CXBxTjFOrTmJpAjVWdE3aRitbm/HmFoP0MSb4xGZ2LszFVNm7ENZae1niDexS67OBJgAE2ACTIAJ3CICzUpELlmyRB5Vd4vYXNcwZUVlSNwXj+xLWdfVT1Ma344xm/J8Nes+93oQBj3oipYmxrB3MqlZzPdMgAkwASbABJjAHUygWYWz6Tzp+fPnY9iwYQgNDW001ozYDFzadRH5yXkwszODVz9v2PnayfbZFzNxftsFFGcVwaKVFXwH+sK0hSkqKyoR+VMETG1V4ibrfDbcurvCtau7bFdWVIq4vXHIOJOGsuJymDtbIGB4IAzNDHH8tygUif7I0k6moTj7CAxN9dHukRCZl3goHikn0uAS4oykqGQUZxbCs48XHAOdcOzXY7BytYLPAB9RloSko0nw7u8Nazdr2baud2lozOLsYpzdFIPchFyY2JiI8VqjhXcL2Wf5lXJE/RIFC2dz6BroIfV4ingPA7Sf0AkGxvqoqKjAc8+/ABNjEyxcqDpSUjZsxEdyYhG+XBCNA4fSYG1pgPGPe2PYI63VLU8ez8K9naqPrVQKDu1JxY/fxuDEmWz4+1hj9Dgv3He/q1IMCoWHrUvErr3JcG9pjhmz2qNtsK0sjz2Vg3Wr4rBlcyL09HXxzNQ2eGCkh7otJ5gAE2ACTIAJMIHrJ9CsPJHK665evRpLly5Fenq6klXnNSc+BxHfHUaWEJLmjuaorKxE5rlMWb8grQCHvz4kywxM9JEmBN3Br/ajXIRW/634F5mn05GwNx45l7JRmJKP06tOoSTvimx7bstZXNhyDhYuVnBq74Ki9CKUF6vm9+kZ6UG36kQZXSFi9I11QXmKFYq6WTHpiF5xHOVFJTC2NkaB6L+yrELm513OlVWLs4rlPQlWsvrepb4xK8UZ2oe+OYCUyGTQe2adzcTRbw8hLylf9kuCmZ4nLvwi4ndfgokQzoXphaisCjGTiAwL24ztO3bI+o39uBxfiAGDN4gzsfWx5OvueHVGMErLtI9qjzyaieAOKjGr2e/lhAKMeMQLy5aHol9/F0x4bQ/yclQcTkZl4pHnd6J3Pyf88EsoxoxvDSMTFV+aY/nYoztgaqaHJUt74K2Z7WFpzXMtNdlymgkwASbABJjAjSDQrDyRmi8cHR2NM2fOYOTIkejWrZtmkVY64WCCvG8zIgCu97jJdGlBibwmHVXNV2w7KhCtOrvi5KoTuHwgEZmx6cJTaa/up+sL9+LctnO4KERjTkIOHAOcUFqoEozGwqvnHOwM7/u81fUDhgcJgZaHA4v2ws7PTngog9RlmgmPfq2l55PyyksqUFGi6lOzjma6vnepb8zM81koyb4C544uCBoTLD2c0cLjmXQkAZYPtdUcAj1e6wUjSyOQ8NTRVf0fgzzA777zNvTFMYRNsQXvR6F/N2e8ObeDulm3XuqkEPT/Ym9UGiY/61+dWZUib2VxUTlOnchGK3dzmZuWWiwF4dmYXNjoG8A/yBauoszLx0rdPjOtGJeLryAopAVa+1rB26+6TF2JE0yACTABJsAEmMB1E2i2IpLevLy8HAkJCejQoQOMjIxqhVGcUSjzW7Su9nYZmqvqFmWpyih8TGbjbitFJHkAFbN0txJiSgfGFqo2leWVssj9XndknReh8E2x8s8+0AEBI4JkOFtp29DVzlsVUqd6+sJT2ZCIrO9d6hvriljkQ2btYaO6irA9WWGmKuQub8SHtZeNFJB0r6tf7TklETlx4pNKtUZdK4R384/d8fjz2z511k+MK0B2eRl82qhC9UrFDCEE35omPKW5JXBzt0BKiur5W7mpxGSfAa3Qa30iug36Bz3E9zp9Zge076Ji6d7aEtPGtcGYqeHwsjDFtGmBWuFzZQy+MgEmwASYABNgAtdHoFmGs+mVzc3NMWHCBIwePbpOAUn1DC1VocyCNJVgpLx//1WFVI2qxGRxlipErYgqQ/OGw5/W7jboNT0U7Sd1AgnI9Og0pJ5Ipu6rTEde/1VpTiVT66qjp6qjZOroqO4rxBxFspK8ajFL9/W9C5UDtY9pYKLyIBZlqERjUZVINrY0VjWr+lRC8FqZ4oamABw9ehSRkVE1i+q8z8tVeVVtW2iPodng3JlcKfSsbLR5fzI7Cs7OJvjtnwH45Mtu8Pe3QoizNYyrQtZU/8ufeiFix1ApMl+fdkCzW7z6bghiDo/ExCd98cKcQ0hL0RbLWpX5hgkwASbABJgAE7gmAs3SE9mxY0c8/PDDsLS0bPClHUToOe1YKk7+dQL5KR4iTFsJ0mre/X1g7+8g5zyeXnsSuYm5iN9zSfZnq+G1rGuAc1vPwkiITZpnae5sKUWk7LiqgZG5SrjRIhVTezMYiQU3LTu1qqs7mU/i1cDCEDkXs0FzLpMjNEUpUN+7UAd1jWnrqVpwErfzInTEHM3UY6p+7fyrPaH1PRh5fEeOGiN5H4uKqK+quszG1ghdPWyxcW0cPL0tUSrmVx7cnYq+g6sZULg6W8wjTYwvAIlNUzPVzzE+Lh9dujqiQnxXu8QCmq9WxWLS/a1l35npVxB/sQAhne1gIf6DYGCgCz/hfVRsR1gievRxkYLTTPCksLdZ1Xeh1OErE2ACTIAJMAEmcP0Emp0ncuzYsXj88ccbJSAJD81X9BSrm8vyS2XY+eLWczCqCk3b+dmj9SBfOV+Q8smCJ3SAsVW190y3al6gLNT4qCitlAttaGEOzZW09WkhxnJR1zASXj4aV1eInHPrYxC7MUZdpiS0/ZAiV6hbr74qsaRatGOhqlrloazvXahiXWMaivclj6meWGl9adt5FAuPJD2bY1tHVf/KZ9U4yq1yVTykyn1jr7SQJnx7CjyDV8Cv8584czJbq2nvAS0R4m2DrgP/gW+nlWJ6gspt+/QLbfF/K87Co90K/LzsrPRWBgarpiPEXczHg09sgWvb39DlnjUoK6vEu/M6yn5pUc2Lrx2Q44WErELY+gT8sLQXi0gt6nzDBJgAE2ACTODGENARoV3t5bI3pt+b0gutxra3t7+mvmkFckleCQyER1DfUE+rDyorLSiV4pLmPzbWKoSAKS0sEfMgjaAnxOKNMtpyR1dfR2teombf9b2LZr2a6X/FQpaSfHpeQ9H3jXvemuPUvKc5jsZiVbi5ReMX5pQLtvlCFJJHs6aVCQGfmV4MOwcTsdhH+z1osU6W8FYaiy2VmjJezTH4ngkwASbABJgAE6ifQLMSkfW/CpcyASbABJgAE2ACTIAJ3CoC2m6cWzUqj8MEmAATYAJMgAkwASbQrAmwiGzWXx8/PBNgAkyACTABJsAEbg8BFpG3hzuPygSYABNgAkyACTCBZk2ARWSz/vr44ZkAE2ACTIAJMAEmcHsIsIi8Pdx5VCbABJgAE2ACTIAJNGsCzXKz8VtBvDC9AMrJLjSenY+dPP7wVozNYzABJsAEmAATYAJM4E4nwCKyjm8o5USK2Jz8rLq0z+z7oBwfqM68xQnaO3GL2ED7y8WnkCf2tdx1aOgtfgIejgkwASbABJgAE2ACKgIczq7jl+DW3QO93u4DS3erOmrc+uyvFkRj1pwIeLiZyeMCb/0T8IhMgAkwASbABJgAE1AR+E97IgvSCnDmnzOw87WDR08P+cYn/4rGlbwraP9Ye/wrTtmL2XAa2Rdy5MkzFk4W8OjtJesbiCMC6U/PQPt0G+WHQ/0U51xBJ3GcYH5yvugnBk5BDmjVxQ10CFDioQRcPpKIssIyWIuzq30H+shjCZX2ny1chNjYWMx89x24uFQfl6iU13Z9YIQ7npkWiD3bk7DzaFptVTiPCTABJsAEmAATYAK3hMB/2hNpamuKrJh0xO25KGGWiiP/Lh9MwL/ijGZdfT1UlJYjOSIZNl7WaNnFFfkp+Yj47rA8HrEh+lnnM2XfVK/8SqlMF2YUy2YkIE//dVLkV8CipQWSDyfiyHdHhGitPmEyIjIKYWGbUVx8paGh1OVePlYwNPpPf2Xqd+UEE2ACTIAJMAEmcGcT+E97Iul8aOdOrZAsPIJFmUXIu5wrvw3Hdk7yamBqiC5TuyI/KU94Istg7miO7PwsFKYXCq/h1Wc2N/arjNsTJ6sGjAiQZ3WXF1cgKzYDeUKkWrlYyrJxY8egT2hv2NraNLZbrscEmAATYAJMgAkwgTuGwH9aRBJlhwB7KSKzLmQiN14lIu387OUXkH0pC0e+OaT+MvRE+JqsrLhUndfUBIWyi1ILZLPDXx3Ual6SK7yOVSJyyJDBWmV8wwSYABNgAkyACTCB5kTgPy8iW3irBGP6mXRknc2EpaslTKxN5HcUt+eSvPoNbQO3bu44tfqkDHdrfoG6VXMiSwtLtVZn6+ipwsoVYsX0lbxq0amjowMDC0OU5Zeiw+TO0K8SptSnmZ2puuuYmBjk5+ejbUAATE1Uz6Mu5AQTYAJMgAkwASbABO5wAv/5CXb6RnqwD3JE+olUVFwph2Ows/orsWypWnl9RSyQoS19Uo4lq8uUhJmdmUyeXnMKcfvikBOfI++t3KzlNXbDGZzfek6pLq/OIaox4vZdQpEIjefE5eDkn9GAbjXuuR/Mw6jRY5GcdPWYWp1p3JSLuZwpSYXIzChBdnlZVbrxcyo1uuIkE2ACTIAJMAEmwASui8B/3hNJdByDnKSIpLS9vwNdpLl0bInMsxmI26laeGPtaYOci9mAjlID8OjlifKSciQdSpTzGlsP8oW1EJAtO7og40waEvbGwVas/qYQtnBCSmvd31fOsUyJSELmqXSZZyZWfuvoVnesW5Umz2Vj7XxMLvqN3KSu3qnf3+jb1hE//dVXnccJJsAEmAATYAJMgAncCgI6Yg5f9ZLhWzHiHThGaUEJ9E0MoFsVom7sI1ZWVILC2bQVUG1WWV6BEhHWpr7rqlNbO85jAkyACTABJsAEmMCdToBF5J3+DfHzMQEmwASYABNgAkzgDiRQPUnvDnw4fiQmwASYABNgAkyACTCBO5MAi8g783vhp2ICTIAJMAEmwASYwB1NgEXkHf318MMxASbABJgAE2ACTODOJMAi8s78XvipmAATYAJMgAkwASZwRxNgEXlHfz38cEyACTABJsAEmAATuDMJsIi8M78XfiomwASYABNgAkyACdzRBGrf4PCOfuT/9sPlJubiSk6xfEkbdxsYWhjdUS+cllKEC2fzUFkBdA91umnPlpKSgsjIKNm/nZ0dOnfudMPHSk5ORl5eHvz8/NR95+TkIj4+Du3atVPncYIJMAEmwASYABO4mgB7Iq9mopWTHpOOxMMJWnk386YwoxBZ57Nw7KdI5CXn38yhmtx35KEMdOizFsu+iUH4lstNbt+UBikpqTh1+jQWLFyEzVu2NKVpo+qWlJRg4qTJyMzM1KpfUnIFQx8ejqJilZDXKuQbJsAEmAATYAJMQE2gWYnIJUuWIDExUf3wtyKRdzlPHI2oLTRu5rguIS5oM7QtDCwMb+Yw19T3Z/OOYcH0Tvj2l95464OO19RHYxuFhATj1VemwcLcDEFBgY1t1uh6332/DJ4enujevbtWG0dHR/j7++HAgQNa+XzDBJgAE2ACTIAJaBNoVuFsPT09zJ8/H8OGDUNoaKj2m9RxR+dex6w7I7x7mbBt3UIcQagPG09bOLRRnaFNnr+zYTHIv5wPU3sz+A72g4U45zovKQ+xG2NRmJaP8uJyHPn+iBwhaFQgjCyN6xhNlX1i5Qk4BzvDTpypTUbHKh5fcQLU1tDMEGfk82SBjkW0crUSY/rD2Lr+PqmfS7suwtDcEC4dWtItLuw4DxNbEzGWi7zPEF5TqlOcXSzf1XeIHwzEkYuKbdwUhrVr12L8uHHo2bOHkt3gdc70w0K8F2GHOCu8+Eo5tm1JwuOTfNGjr3O9badNexXPP/8cWrf2kvXOnTuPTxcswMcfzYOpqSkWCi/jfiHW8gsK0b9fXzz11BTY2Nio+ywW3sCoqGPw1wg3U+GmsDCcPXsOL4i+ydatW4+kpCTZnu5pnM8XL8bpMzEY+tCDGPfIWLRo0YKKpJ0R+Z9+ugDh4duVLK2rr6+v7KNvnz5a+XzDBJgAE2ACTIAJVBNoVp5I5bFXr16NpUuXIj09Xcmq8xq395IUkH4PtIGeoS7iwoXIylKFKsuEIDqweJ8419oQgaODYNbCFMd+EfPwxHHipnZm8BnsC3shNq3crGWa7g1MG/YQGgmhl3AgTv1MaafT5DxHEp90UrmugS4Chgeg3SPBqKysxNFlKoGqblBHIj+1AIWZRepSCncXZareJedSNiKE0LXzs0fAiCApJM9vOauuS4mEhASEhW1GWlqaVn5DN+Mm+qLfQJVwnftJF7wyox2CO1WLsrraJyUnITY2Vl1Mws7V1RVWVlbIysqGja0t5s6dg4UL5iMiMhK//75CXZcS586dk/deXioRqhTuDN+FfwU3xbZt2y64qo6Aj4uLQ/8BAxEYEIBPP/kIJ0+exI8/LVeqyuv3y5Zh4pMT4O7mppWv3BgaGjbqt6XU5ysTYAJMgAkwgbuRQLMUkfRFRUdH46OPPsL+/fvr/d7ST6bCo7cnHNo6wG+Iv1bdtBMpqBBC0iHAARVllWghBFiREGq0uEXfUA9WLpbS62hgaiDTdK+r3zAyR+GFTI9OQ1lxmRwv6ehltOykEmHUnp7DzNEcFaWVsHa1QWFKvlioUi2KtB6ykTcJB+NhJjyoFuIZSZjat7HH5SOX5XspXXTu1AnvvPM22rZtq2Q16urtZwVdHaCXrz3aBNnAP9AGFpYNi2lasHL+wgU5xokTJ6TH8GnhbSRzdHTAlMmTRLjaHAUFBfD29lbXlRXEx5mYGHTr2hX6+toO88NHj6JNmzZKNenN9PXzlfdz5n4gPY8TJz6JACEkH3v0Ufzxx0p1XUrs3r0H7du318rTvKHfVusawlWznNNMgAkwASbABJgAoP2vczMjUl5eLr1rHTp0gJHR1auYSRjmJeTB/0EL+WY6erqwdLVUv2WRCPvqGesj5ViyOs+5o4sQXmLp8XUYiU0TO1OkCw+krVcL5FzIRuAo1Wpfeqaj3x9CflI+bH1aCI+ayoNG+bri+a7VKCxP3riko9VzRkkclxeXQs9AFSpv3z5EiKeQaxoi+liWaNuw91GzcxKGR4XgI1u48HO89dYM0EprspV//okff/wZnp7uMDczx4aNGzH12WdkmfJBoeyOnbTnXhYWFuK88FB6e7eW1bKzs5Gamgofbx8UFRVh+/btMn/d+g1KN3BxqQ67k/ea6vv6+qjLNRPUP4W727atFqma5ZxmAkyACTABJsAEVASarYg0Fx6skSNH1utR0hNhY1Ph8SsSIWBrDxsp2EhUOndQvTzNLyQjgadDrrZaTEdk//tv072ELbu0QlJksvRGWnvawFSEysmSIxNRmF6IPu/1k6Ix5XgyMk5eHV4mj2WFmDOpaXoGOsJzqvJuUn5xeoGcv0lpI7EVkJHQykFjgum2VqN5g/Tn6uomPYG1Vqoj82hEJp59rmnCysvTEz8t/xkHDx7C0YgIfPHFYtn7+fMX8MYbb2LXznDxLK1A2/n8vmIF/MSCFk07eOgwXnt1mmYWLl66JO/dqkLR4Tt3ynsSipcuxcn08WORsLBQ/cdBZmh8KCFyT/FstRnNpyTz8aldZNbWhvOYABNgAkyACdyNBK7d9XUbaXXs2BHTp0+vV0Aqj+cQ6Ih4MT8xPyUP8fvjlWx5pYUvFM5OPBSP8tIKGVJOPZUKWoyjmKXwKmYLT2Kx2LtRmXenlNV3dQpyRlbVQhcX4d1UTJlTSZ5HWgATv08lfJRy5Urh6NTjKSgrKhULcFQilkLfGbGZKCssldsA0WIgxRwDnWQInbYHIu8mzfdMjU5RiuWVvHOjRo/Fnj17tPIburlypQJRyTnwaWPdUFWtclc3V+k1nDV7Nma9N1MupqEKypxMExNj0F6Nc9//ULbzEZ5LTSvIz0d8XDzyxZW8zmQlV67Ia1ZWFmJEuHvRos/Rt29f6Orqwt2dxLEjVq1ajbKyMvlHoWva+1ExI2OVV7ZmiFwpX/7zzxg7ZgxMTEyULL4yASbABJgAE2ACtRBodp7IsWPHolu3brW8Su1Z7t3ckRuXjf2f7ZXhY5o3SB49MjOxeKbdYyE4uTIap1edknnkubR99h6Zpg9ayU0La3Z/GE636DG9t9qrKDPq+CDPo6W7FfLicsWcy+pNue39HWDZKhE7Zm6RLVt2bSXD3TW7cevuIVaHx2DHrG1oeY+rWCwTiBYi/J14KAE7Zm+THlbqnzylZM5ia6DCjCIc+d9BVYb4dAh2BIlLxXSqKitXJb+h60WxuTiZR+vqqQANtaHyVi1V80Ap/ZBYJa1Yly6d0Sc0FJ27dJVZw8Vqe0tLSzg7V4edqWDGjOmYOXMW5n30Md6b+S4mTHhCbgIeEBCILvd0k1vx2IrFOcHBqqkCtHp/zuxZWLhoEWbNniP7pv9w/PLzTzJNHy1dVII+NzcX1tbaophC71u2bMXOOlZtqzvhBBNgAkyACTABJgAd4V1TTcprBjBoPpu9vf01PSl55+hVt84IQ/fXesLcwVzdD+WX5pfI8LKB2ILnVhh5GPXE4h1dfb0mD0fPWtdJNrRApySvRK4i1zdqet+1Pcz3S07jWGQGFi/rWVvxNefRfEYSjyT+mmrUVnM7oJrtU1PTYGZmCpr2UNOGDR+Bl156EaG9e6uLKioqxCbjIzDt5RfRT2w3xMYEmAATYAJMgAnUT6BZicj6X6X20ozYDCSLhTOWLhZIP5WGkvxS3PtK4/dIrL3XuyO3QgjvBbOjsHzVeSxfFoqQzqpFMc397ffs2Ss8uDq4997u6le5cOGiWLW9G0888bg6jxNMgAkwASbABJhA3QT+8yKSvHbJYiufEnFtITYbt/WyrXMRTd2Y7s6SwoIybFgdj559neDU0uzuhMBvzQSYABNgAkyACdRK4D8vImt9a85kAkyACTABJsAEmAATuC4CutfVmhszASbABJgAE2ACTIAJ3JUEWETelV87vzQTYAJMgAkwASbABK6PAIvI6+PHrZkAE2ACTIAJMAEmcFcSaHb7RP7XvyU6t/uK2NiciJC0qwAAGjFJREFUzMbdps6tfG4Xh7SUIlwQ+0ZWisN0uodW70F5o5+HTrGJjIyS3dJRiZ07d7rRQ8iNzvPy8kBnfN+pRpul09niZN26db1qb8u4+Hg6UklstO5+p74CPxcTYAJMgAn8RwmwJ7KBLzZdnDqTeDihgVo3rpjOwKZTZ479FIm85OoTaW7cCNfeU+ShDHTosxbLvolB+JbL195RI1qmpKTi1OnTWLBwETZvUW3M3ohmja5SUlKCiZMmIzMzs9FtrqUinazj6eUN5ThF6qO4uBhdu92L1avXNNjlsePHsWfvXkx97nmUlpZdVT9GnPP97nuzrsrnDCbABJgAE2ACN5sAeyIbIJx3OQ8FKflo1dm1gZo3pthFnDxDf3Sm9p1mn807hgXTO2HMhJt/rnRISDDoj45oDAoKvOEovvt+GTw9PNG9e/VekTd8ENGhlZWV7DYnJ1vd/YYNG6WQHDhwgDqvrsTzz00VDPZi27btcHC4eqP9jh074OlnnpViuEWLFnV1w/lMgAkwASbABG44gWYlIpcsWYJh4oi8Vq1aNRoEnVQTt+cS0sSZ2HSSi2UrKwSNbidOilE5YcnzdzYsBnQOtam9GXwH+8FCHI2Yl5Qnjh2MRWGaOLe5uBxHvj8ixwwaFQgjS9X5y3U9xImVJ+Ac7Aw6m5ustKAEx1ecALU1FCfinFl3RnobK8srYOVqJcb0h7F1/X1SP5d2XYShuSFcOqiOE7yw4zxMbE3EWKqj/DKqzuqmM7ltxZ6YvkP8YGBiQE2lbdwUhrVr12L8uHHo2bPxG67PmX4YiYlF2HEmDcXiTO5tW5Lw+CRf9OirfUyhMo5ynTbtVTz//HNo3dpLZpE37tMFC/DxR/PkOdoLhZdx/4EDyC8oRH9xSsxTT03ROoWGPHZRUcfgXyPcvCksDGfPnsMLom+ydevWIykpSbanexrn88WLcVp46YaK4xbHPTIWmgLrjMj/9NMFCK9xvOHKP/9ERnoGMjIysG//fgwePBgvvvA8dSlt+44dWPZ/P6KwIB9jRo/GyJEjEB+fgK+/+QbzP/lYqSavJ06cAAnVzxZ8Ks/zzs7Okfl0Ms5i8Tt+6cUXJIPExMv48suvEHUsSpywYw4SlpMnTZSboSsdnjx5Et26qo6IVPKUq/Jely5d0npHpZyvTIAJMAEmwARuFoFmFc6m4/Hmz58v/vEPbzSP1OgUnN96Dj4DfRDyeAdYi3OwxSQy2b5MCKIDi/fBwNgQgaODYCbOuz72i5iHJ+aYmYpztX0G+8K+jYM8O5vS9Gdg2vCxiEZC6CUciFM/Y9rpNDnPkcSn6Bq6BroIGB6Ado8Eo7KyEkeXqQSqukEdifzUAhRmFqlLKdxdlKmaP5lzKRsRQuja+dmLc7aDQELy/Jaz6rqUSEhIQFjYZqSlpWnlN3QzbqIv+g1UCde5n3TBKzPaIbhTw16vpOQkxMbGqrsnYefq6iq9c1lZ4thCce713LlzsHDBfERERuL331eo61Li3Llz8t7LSyVClcKd4bvwr+CmGHnplNM74+Li0H/AQAQGBODTTz4CCbAff1quVJXX75ctw8QnJ8DdzU0rf+OGTfhk/qcIDAzEc1OngkSuEobeuHETSBSPGD4Mb7z+uhSO+/cfECHmUmzevEWrH7r59dff0VKcHU6/WfpPT5Y4ppFs585dUniOGjVS3icnJ8v5np8vWohXX3kZH344D4cOHZZlykdkVJT6fHAlT/NKR0cSTzYmwASYABNgAreSQLMSkQqY1atXY+nSpaCztBuyyrJKKdqMLIylh9G9h4f6vOo0cZJNhRCSDgEOqBD1WggBViSEGi1u0RfnWlu5WEqvo4GpgUzTveLBrG9cR+GFTI9OQ1lxmayWdPQyWnZSiTBq7zfEH2aO5qgorYS1qw0KRbiczry+Hks4GA8z4UG1EM9IwtS+jT0uH7ks30vpt3OnTnjnnbfRtm1bJatRV28/K+jqAL187dEmyAb+gTawsGxYTNOClfMXLsgxyDNHHsOnhbeRzNHRAVMmT4KFONuaFo54e3ur68oK4uNMTIz0wOnrazvMDx89ijZt2ijVpDfT189X3s+Z+4H0PE6c+CQChJB87NFH8ccfK9V1KUGLVdq3b6+VRx7CHeI/J3Pnzhbe7ocxaNBAWV5eXo78/Hy8OeMtzJr1Hh64fwg6deqIESNGgDyixsZG6n4+nPeRFMI5OTn4fcUKjBkzWpa1bOmCrKq5l199/Q1ee+1VWFhYyDJaMDR06EMoKyuX9xTCJ7GvGH2XJFbpXWoz8prS4iA3t1sz3aK2Z+A8JsAEmAATuDsJaP/r3IwYREdH48yZMyKkOFKsWu1W55PbBziCFsfs+WQXDCwM4dnbC+49PWS4sEh46/SM9ZEiztZWzLmjixBeYunxdRiJTRM7U6QLD6StVwvkXMhG4Kh2skcSq0e/P4T8pHzY+rQQHjWVV5TydfWuXdNTWJ68cUlHE9VPTuK4vLgUegaqUHn79iFCPIWoy5uSiD6WJdo27H3U7JOE4VEh+MgWLvwcb701A7TSmoxCxz/++DM8Pd1hLsK4GzZuxNRnn5FlygeFsjsKwaZphYWFOC88lN7erWV2tvDwpaamwsfbB0VFRdi+fbvMX7d+g7qZi0t12J3+40H1fX2153UmJal+Aw/c/4Bsd+mSypNM4uzEiWgp1F555VUhJGer+yWRaGxsLMvIA7p06XeY8MQTIEE6ZMgQtafTyclJhsjJ20o8ln77jeyDFvd8IDyPERFR8Pf3lb9Jeue3ZsxQj5GQmCj79/HRfl6lwtmzZ2WydWsVDyWfr0yACTABJsAEbjaBZisiCQx5ichr06FDBxgZVXuENKEZCJEYPC4EZcMDkX4yFdErjsPaw0aGtWl+IRkJPB1ytdViOiL733+b7iVs2aUVkiKTpTfS2tMGpiJUTpYcmYjC9EL0ea+fFI20gCbj5NXhZfJYVog5k5qmZ6AjPKcq7yblF6cXSO8qpY0sjMQfEDQmmG5rNZo3SH+urm7SE1hrpToyj0Zk4tnnqr1/dVTTyvby9MRPy3/GwYOHcDQiAl98sViWnz9/AW+88SZ27QwXz9IKtJ0Pee78/P202h8UYd3XXp2mlXfx0iV571YVig7fuVPek1BUhN/xY5FqT59WY3GjhMg9xbNpGokxEozW1lYy+6wQqv7ieUxNTXH58mW5yGf1qr80m8g0eR3JfvjhJ3z88UcI3xGO3WI19QciTK+Yg4ODmNsZhe+Wfi/niNrY2MiiVatW4/Dhw1j1158wMTHBli1b8eeff8HHx1tpinNi7qfmc6kLqhI07/PeHj1Q01tbsx7fMwEmwASYABO40QSu3fV1o5+kif2ZizDohAkTMFoscKhLQFKXFJouFvsukpi08bKVo1SUqsQZLXyhcHbioXiUizwKKaeKBTjlJarQIlW2FF7FbOFJpD6UeXeykwY+nIKckVW10MVFeDcVU+ZUkueR5i3G74tTirSuFI5OPZ6CsqJSVJarRCyFvjNiM1FWWCoX5tBiIMUcA51kCJ22ByLvJs33pPmgmkbeuVGjx8oVz5r5DaWvXKlAVHIOfNrQfNLGm6sQZeQ1nDV7Nma9N1MKMmqtzMk0MTGWezXOff9D2amP8FxqWoEII8fHxctwMv2HgazkyhV5pa1zYkS4e9Giz9G3b1/o6uqKvRJJHDuCxFlZWZn8o9B1Tk6ubEMfRsJzSFZTdJ0WXu0uXbrIMvo4LbYXov+ckHXu3Fku8CFPIv0GKHxMgo9M+e2dEJ7xhx58ABs3bYKBvp7WvpZ2di1kKJ/KKLyuGM2TpMU09CzRYu7mx2I+Jj2/tXU1Z1pcRM9PC3DI06ppVwSLb79dKudpauZzmgkwASbABJjArSDQLD2RHTt2xMMPPwxaUNCQ5SXm4PSqUzJsTXXderijhbcqLGsmFs+0eywEJ1dGyzpUbirmKto+ew8lpdl42sqFNbs/DJf3Pab3VnsVZUYdH+R5tHS3Ql5crphzWb0pt72/g1ghnogdM7fIli27tpLh7prduHX3EKvDY7Bj1ja0vMdVLJYJRAsR/k48lIAds7fJ56T+yVNK5iy2BSrMKMKR/x1UZYhPh2BHkLhUTKeqsnJV8hu6XhSbi5N5tG6Yt2ZfrcTCEsUeEqukFevSpTP6hIaic5euMmu4WHFP36Wzc3XYmQpmzJiOmTNnYd5HH+O9me+K/zQ8gXbt2on5gYHock836Sm0FYtzgoNVUwVoEcuc2bOwcNEiIVxVnkD6rfzy80/K0GjpohL0ubm5WmKN5mxqroCOFiHsAQP6y3bkLZ027WU8+eQkKSApc7KYz9m//31qEfn001NkaJveg1aZk6hVzL4qhE9tNLfpeejBB7F6zVr4+rWR3sbWXq3VWwIpbUNDeyNIvHPPXr1l1rmzMXKxDt2Ql7etmBtKK9DZmAATYAJMgAncagI6wrOimpR3q0e+hvG++uoruSCivjmQtXVLXr/SwhIYi9XRtYWtCUFpfokMLxuILXhuhZGHUU8s3tEVXqumGj2roQhf12bkTaWtjMjjqW/U9L5r6/P7JadxLDIDi5f1rK34mvNoPiOJLhJ/TTVqq4SFa2ubmpomvHymII91TRs2fAReeulFhPZWCbOa5XXd01xHmlNJ4yoeyLrqNjaffnu04Tlt1dMUcU/TEgYPeQAb1v8jV4E3djyuxwSYABNgAkzgRhFoViKS/gG3t796w+UbBYP70SZQIcLiC2ZHYfmq81i+LBQhnVWLYrRrNb872rybBNu993Zvfg9f9cS7du1GhTh7kjy6bEyACTABJsAEbgeBZiUibwegu3nMwoIybFgdj559neDU0uxuRsHvzgSYABNgAkyACdQgwCKyBhC+ZQJMgAkwASbABJgAE2iYQPXs/4brcg0mwASYABNgAkyACTABJiAJsIjkHwITYAJMgAkwASbABJhAkwmwiGwyMm7ABJgAE2ACTIAJMAEmwCKSfwNMgAkwASbABJgAE2ACTSbQLDcbb/JbigYbNm3GX6v/lk0//mC2OMNZ+xzoKc++iMrKSnTv1gWTJjx+LUP8Z9vMnDNPHv3XUmwePmdm9bnO9MIrVq7C5q2q86qXLPxEfSrNjYBBeygWFIijHS3EeY4atn//AbRp46+1WbhGsUzSKS+nT5+q91z1mm34ngkwASbABJgAE2g8gbvGE1lSUiLOaW6JLxbNFxs7q44/1MRUKo7Jm/biVDw2bqw6e+qLr+GJyc/KvzffnY2/12+U53WrK1xHYvXadTgefbLJPVxOSsbSZT82ud31NHh7+isYPWIYCgsLr+pmxLCHMPOtN1AuNuK+kbvWb9++AyHtO6JdcHvcN2AQ6CxrxZ55dirOijOl67OLFy/imWefq69Kk8tof0k6UpGNCTABJsAEmAATAJqViFyyZIk4Qzjxmr83XR1dmJiY1HkyiJGRMQwNq0+sKSsrxZCB/fHB7HfRp2cP6ck8dOToNY+v2fDQ0aPCu5ekmdWoNJ3UcuDg4UbVvVGV6HQWQ6NqLpr90rnPRsa1n56jWa8p6ZycHEyaPAUz3pyO48cihXe4K1588aUmnV1Onsp1/6g8z00Zu766dL72vv3766vCZUyACTABJsAE7hoCzSqcTcfjzZ8/H8PEWcuhoaG35EuytbVGq5Yu8u9IRCS279iF7l1VZ2uv/GsNLEWoNSklGRGRx0V41RJvvjZNHLdnhq3bw7FpyzaUXClB+5AgjB87Wh6Vt23HTuzcvQ9JSSkixL4F+w8egZmpCaa/9rJ8nywhEpf9sBwXLsaL4/UsMW7MaAS09UdpaRne/+hT5OfnS68fhZjJhj44GB3bh+CLr5eigxiHBBcZeV7nzf8Mj49/BF6eHvjw4wXw8W6Ng0IE/ytOohkx7EH1e1AY/+91G7F7736Ul5WLM6Q7Y9SIh6/pOEI5uMbHxk1hWLt2LcaPG4eeQog3xnbu2iWPQxw1aqR8hifFmdnLxTnR586fF+/gLbvYtXs3Pl2wABXimMenxVnVdI41GYns6W+qQu70H4bPFy2U+crHvn378N13yxAv/jNCrF59ZZr6vOry8nJ5HvWGDRuRI87W7tG9O956602QV3PBZwsRExMDCpM/9fQzsrv3587VOgtbGYOvTIAJMAEmwATuBgLNyhOpfCGrV6/G0qVL5TnGSt7NvtK5yZeF8LO1tVEPFZ+QiF//+BN0TvPj48eiY4f2KBMiLFF4GJf/ugJdO3eSYmz/gcPYui1ctusQEizqjoGtOH+5U4cQmR49cpi6z//78RekpKVj4hPj4eToiM8+/0IIpQoYGOjjiUfHYmD/vrIu9UF/3q295L2jgz1W/b1e3c+hIxFISLgMdzdXmXf+wkVs2rwVDz8wBCHtAvG/735AYVGRLPtrzd9YvzEMD94/CGNGD0P4rj04cOiQuq/rSSQkJCAsbDPS0tIa3U1qSip8fHzUItbFxUW2Tdfo46eflmPypEm4r19fKepI3JHRWdmvTJuGwYMGITx8p8xTPqKijmH8o4+jd2hvzPvgfekJ/urrb5RifL54Cb79dinGjBmFLxZ/LsVlmZjm4OrmJvu877770KlTJ5mmMaytrdRtOcEEmAATYAJM4G4j0Kw8kZpfTnR0NM6I8OLIkSNv6uKJsK07cOx4NE6fiZXDPyREmKYZGhgIL+I0GSLvXFWwd98BODo6YOTwoTInVYifwxERuH/IQOFdtJZ/xiZG0ouliECqSGLx1OkzeOG5p4XQC0K7oEBMmfqi8MBdgJ+vD1p7eaK4uBj6wiOr2Y7a9undE+uEEIyLT5DCcduOcIT26qEWYlTnvr6h6HFvN/m3a88+OVbnjh2wKWwrAgPawNrKUoaM2/j7YosQvfd260bNrss6C9H1zjtvo23bto3uh7yJpmam6voUTifLzctX5z3z9FPS+0geyN9+/x0Rgm/fvn2E2DaAv7+f5KSuXJVYseIPBAQEwt/PT85t7dsnFJ/M/xTTXn5Jtvviiy/x0UfzMEr8psioH8Uo7eTkhFzhodTMV8r5ygSYABNgAkzgbiPQbEUkfVEUfiRPV4cOHWSo+GZ8eQ52dgho00Z46QZL4UYhdU1rH9LuqjmWx05Ew1sIPsW8PDywbkOYFIk12yt16EqeTVqg4lHlPTQ0NIBdixY4eeq0FJGadWumabV5a08PhO/cjfsHD8TFS/GYMnGCVjV3d5VXkjJbtXIRIjxWvJu/HDM7Jw/bRKheMQd7eyV5Xdf2ItROf00xKysrFBWqvKTUrrS0VDa3EF5GxXx9fZUk2rVrh6hjx6SIVGfWkrhw8YL4DsqwZs1ademQwYPlFAGxEFxae+EpZmMCTIAJMAEmwAQaJtBsRSSFLckL2b59+4bf8jpq0HzG/iJkWpfRnMiaZmpqiuSUFHV2igh3k/dQU0Dq6uigUszn0zRjY2N5m5qWIbevoS1uaJEJze1Tm2hHQrM2GzTgPhGm/j9QPy4uTmjp4qxVLU30q1hGRhZ69bhX3fe9Xbtg4IB+SvENuyYlJYn5n0liZbyb9M42pmNHJ0ex+vqsWnQnJyfLZvb2durmiZcvq9MXL8ap50SqM2tJODg4CO+vA+bN++CqUvLwklHYX1OgalbUEewrymtnr1mP00yACTABJsAE7gYCus3xJTt27Ijp06ffdAF5rWwoNHxBCJszMbHIyMjETrE1jI+3l1Z3tEAk8thxsQ9ioXrVsYMQSSZCAIaJBTm0nQ4twiHB2FYjrOru2kr2E3X8hNzXUrPTjmKOpa6uLjaEbcGAWoTvHrG/Ij1PlBg3TyzQCQpoK72o7YPbYYsIf8fFxcvuUsScRArh3whbt34DRo0eiz179jS6u549eiAvLw/r1q8Xc0zL8Otvv6O14EXzJBX75591Yi5qKg4fPoKTJ6PRSfwmGrKBAwZg3br1sg1NHaBFStu2qfa4JKFO8yiXi7mW586dl9/JfrES+8qVK+pu2wqv7f4DB5Ai/oNAi5HYmAATYAJMgAnczQSanSdy7NixN3UOZM0fA3mfmmqhvXpKETZvvmplsLWlFZ588VGtbmgO46IlX+O5l18Dzatc+vVi6al8/tkpWLj4K0x96TVZ/6EHBsHd3U3dljbe7hvaS9ahzCfEgp6+fXrLcvJ09ujeFdtFSLtrl07qNkqCtuN59c135O293e5Rb7g+8YlHsfjLbzBzrmrFN1UY9tADCBYLcK7XFH7KtTH92YkpBIs/X4QXX3oZL7/8ivBgOuL775ZKgay0pzmTXbvdK2+fEquzlcU3Snlt18GDB+EVsRp79Jix6uKHhw5FvyrBPXv2e3hzxtvoP2CgLHcT0wo2bqherEReb/oPTLfuqlXmu3ftFNMCWqr74gQTYAJMgAkwgbuJgI4Imd7IPaJvKrv09HTYX+NcvdVr/8GafzbI56MTa5zEwhdNo03FyWihCQm5G2FFRcVyqx1aTNMUIy9XVla23OaG5kU2xWgrH2sxp3DqM5O1mk16+nm89MKzct4kFdA2RDWNvG55YvEKrUAnwakYbbSenJwi52cu+Ph9JVtefxar0LdsD5fprxYvENsVVS+I0ap4DTfkLczMzBLfud1V806pOzrNhn6+NU+0oTLapmfpd99h9aq/6FbLaC4t/ZZo7iVNPahp1G+hmJNJ80w1pyDUrMf3TIAJMAEmwATuZgLNSkRe7xel6OXavGL1lV3vuLeiPa0e37R5C6JEGHrue2/DrSrsrYytiMh2gQFKVpOuxKc2btTJncSO9qWk+ZS//vobJk2aiCmTJzXpPbkyE2ACTIAJMAEm0DgC1e6mxtVv1rXqEkH0UvWVNYeX1tXVgYe7O4YPffAqAUnP/8CQQXC8Ri8uta+PT31l1PZWmr6+ntwr8uuvvkQIr7S+leh5LCbABJgAE7jLCNxVnsi77Lvl12UCTIAJMAEmwASYwE0j8P/ZcniUrLevIAAAAABJRU5ErkJggg==;" vertex="1" parent="1">
          <mxGeometry x="-930" y="-630" width="481.97" height="190" as="geometry" />
        </mxCell>
        <mxCell id="F8KWVKvnSCSEdcvsusQa-6" value="effect(() =&amp;gt; {&lt;br style=&quot;border-color: var(--border-color);&quot;&gt;&lt;span style=&quot;border-color: var(--border-color);&quot;&gt; &lt;/span&gt;&lt;span style=&quot;&quot;&gt;&lt;span style=&quot;&quot;&gt;&lt;span style=&quot;white-space: pre;&quot;&gt;&amp;nbsp;&amp;nbsp;&amp;nbsp;&amp;nbsp;&lt;/span&gt;&lt;/span&gt;calls++&lt;/span&gt;&lt;br style=&quot;border-color: var(--border-color);&quot;&gt;&lt;span style=&quot;border-color: var(--border-color);&quot;&gt; &lt;/span&gt;&lt;span style=&quot;&quot;&gt;&lt;span style=&quot;&quot;&gt;&lt;span style=&quot;white-space: pre;&quot;&gt;&amp;nbsp;&amp;nbsp;&amp;nbsp;&amp;nbsp;&lt;/span&gt;&lt;/span&gt;dummy = a.value&lt;/span&gt;&lt;br style=&quot;border-color: var(--border-color);&quot;&gt;&lt;div style=&quot;&quot;&gt;&lt;span style=&quot;background-color: initial;&quot;&gt;})&lt;/span&gt;&lt;/div&gt;&lt;div style=&quot;&quot;&gt;console.log(calls, dummy) // 1 1&lt;br style=&quot;border-color: var(--border-color);&quot;&gt;&lt;span style=&quot;&quot;&gt;a.value = 2&lt;/span&gt;&lt;br style=&quot;border-color: var(--border-color);&quot;&gt;&lt;span style=&quot;&quot;&gt;console.log(calls, dummy) // 2 2&lt;/span&gt;&lt;span style=&quot;background-color: initial;&quot;&gt;&lt;br&gt;&lt;/span&gt;&lt;/div&gt;" style="text;html=1;align=left;verticalAlign=middle;resizable=0;points=[];autosize=1;strokeColor=none;fillColor=none;" vertex="1" parent="1">
          <mxGeometry x="-1530" y="-390" width="190" height="110" as="geometry" />
        </mxCell>
        <mxCell id="F8KWVKvnSCSEdcvsusQa-7" value="let dummy&lt;br style=&quot;border-color: var(--border-color);&quot;&gt;&lt;span style=&quot;&quot;&gt;let calls = 0&lt;/span&gt;" style="text;html=1;align=left;verticalAlign=middle;resizable=0;points=[];autosize=1;strokeColor=none;fillColor=none;" vertex="1" parent="1">
          <mxGeometry x="-1520" y="-710" width="80" height="40" as="geometry" />
        </mxCell>
        <mxCell id="F8KWVKvnSCSEdcvsusQa-8" value="1.effect是一个函数，并且传入的函数参数会被立即执行&lt;br&gt;2.执行过程中会读取a.value，产生一个订阅（ReactEffective）。会被放入ref的袋子里&lt;br&gt;&lt;br&gt;3.a.value = 2之后会触发ref.dep里所有的订阅（ReactEffective）" style="text;html=1;align=left;verticalAlign=middle;resizable=0;points=[];autosize=1;strokeColor=none;fillColor=none;" vertex="1" parent="1">
          <mxGeometry x="-1350" y="-405" width="480" height="70" as="geometry" />
        </mxCell>
      </root>
    </mxGraphModel>
  </diagram>
</mxfile>
